<svg width="491" height="1772" viewBox="0 0 491 1772" fill="none" xmlns="http://www.w3.org/2000/svg">
<rect x="197.423" y="1153.6" width="222.157" height="196.351" transform="rotate(17.0591 197.423 1153.6)" stroke="#CAD0EE" stroke-width="1.5"/>
<rect x="272.653" y="1113.7" width="101.726" height="149.039" transform="rotate(17.0591 272.653 1113.7)" fill="white" stroke="#CAD0EE" stroke-width="1.5"/>
<rect x="197.503" y="1358.6" width="101.726" height="77.8116" transform="rotate(17.0591 197.503 1358.6)" fill="white" stroke="#CAD0EE" stroke-width="1.5"/>
<path d="M311.667 1201.37C309.698 1207.78 302.9 1211.39 296.483 1209.42C290.066 1207.45 286.461 1200.65 288.43 1194.24C290.399 1187.82 297.197 1184.21 303.614 1186.18C310.03 1188.15 313.636 1194.95 311.667 1201.37Z" stroke="#CAD0EE" stroke-width="1.5"/>
<line x1="223.797" y1="1448.85" x2="140.521" y2="1720.23" stroke="#CAD0EE" stroke-width="1.5"/>
<line x1="240.26" y1="1453.51" x2="309.123" y2="1771.58" stroke="#CAD0EE" stroke-width="1.5"/>
<line x1="208.459" y1="1439.96" x2="0.564819" y2="1677.6" stroke="#CAD0EE" stroke-width="1.5"/>
<path d="M185.673 163.387L160.561 170.689C149.509 173.903 139.843 180.709 133.092 190.032L109.343 222.827C106.38 226.919 100.662 227.834 96.57 224.871V224.871C92.4786 221.908 91.5636 216.189 94.5265 212.098L119.461 177.666C125.489 169.342 133.772 162.916 143.334 159.146L166.957 149.833" stroke="#CAD0EE" stroke-width="1.5"/>
<path d="M323.137 264.121L324.034 290.258C324.429 301.761 320.978 313.068 314.227 322.39L290.477 355.185C287.515 359.277 288.43 364.996 292.521 367.959V367.959C296.613 370.921 302.331 370.007 305.294 365.915L330.228 331.483C336.256 323.159 339.777 313.284 340.375 303.024L341.853 277.674" stroke="#CAD0EE" stroke-width="1.5"/>
<rect x="188.371" y="50.955" width="298.9" height="92.8564" transform="rotate(35.9105 188.371 50.955)" fill="white" stroke="#CAD0EE" stroke-width="1.5"/>
<rect x="240.212" y="202.62" width="37.0128" height="25.459" transform="rotate(35.9105 240.212 202.62)" fill="white" stroke="#CAD0EE" stroke-width="1.5"/>
<rect x="197.457" y="202.565" width="106.336" height="63.9718" transform="rotate(35.9105 197.457 202.565)" fill="white" stroke="#CAD0EE" stroke-width="1.5"/>
<rect x="246.402" y="43.0507" width="44.7154" height="40.8641" transform="rotate(35.9105 246.402 43.0507)" fill="white" stroke="#CAD0EE" stroke-width="1.5"/>
<rect x="268.183" y="32.6716" width="21.6077" height="21.6077" transform="rotate(35.9105 268.183 32.6716)" fill="white" stroke="#CAD0EE" stroke-width="1.5"/>
<line x1="239.252" y1="12.2464" x2="314.115" y2="66.459" stroke="#CAD0EE" stroke-width="1.5"/>
<rect x="383.65" y="142.441" width="44.7154" height="40.8641" transform="rotate(35.9105 383.65 142.441)" fill="white" stroke="#CAD0EE" stroke-width="1.5"/>
<rect x="405.431" y="132.062" width="21.6077" height="21.6077" transform="rotate(35.9105 405.431 132.062)" fill="white" stroke="#CAD0EE" stroke-width="1.5"/>
<line x1="376.5" y1="111.637" x2="451.363" y2="165.849" stroke="#CAD0EE" stroke-width="1.5"/>
<path d="M229.515 264.083C226.951 267.624 222.002 268.415 218.461 265.851C214.921 263.287 214.129 258.339 216.693 254.798C219.257 251.257 224.206 250.466 227.746 253.03C231.287 255.594 232.079 260.542 229.515 264.083Z" stroke="#CAD0EE" stroke-width="1.5"/>
<line x1="161.99" y1="795.346" x2="387.02" y2="750.427" stroke="#CAD0EE" stroke-width="1.5"/>
<path d="M221.69 584.68C220.204 577.237 225.033 569.998 232.476 568.513C239.92 567.027 247.158 571.856 248.644 579.3L258.899 630.676L231.945 636.057L221.69 584.68Z" fill="white" stroke="#CAD0EE" stroke-width="1.5"/>
<path d="M236.778 688.565L256.773 691.678L220.962 915.898L206.454 883.315L236.778 688.565Z" fill="white" stroke="#CAD0EE" stroke-width="1.5"/>
<path d="M277.634 680.408L260.366 690.96L379.516 884.248L380.404 848.592L277.634 680.408Z" fill="white" stroke="#CAD0EE" stroke-width="1.5"/>
<circle cx="252.192" cy="661.106" r="39.1052" transform="rotate(-11.2885 252.192 661.106)" fill="white" stroke="#CAD0EE" stroke-width="1.5"/>
<circle cx="253.139" cy="659.686" r="11.3273" transform="rotate(-11.2885 253.139 659.686)" stroke="#CAD0EE" stroke-width="1.5"/>
</svg>
