<svg width="1920" height="889" viewBox="0 0 1920 889" fill="none" xmlns="http://www.w3.org/2000/svg">
<rect x="59.124" y="480.36" width="149.443" height="132.027" transform="rotate(11.5865 59.124 480.36)" stroke="#CAD0EE" stroke-width="1.5"/>
<rect x="107.097" y="448.712" width="68.1661" height="100.096" transform="rotate(11.5865 107.097 448.712)" fill="white" stroke="#CAD0EE" stroke-width="1.5"/>
<rect x="72.3725" y="618.077" width="68.1661" height="52.0263" transform="rotate(11.5865 72.3725 618.077)" fill="white" stroke="#CAD0EE" stroke-width="1.5"/>
<circle cx="130.725" cy="503.164" r="7.95826" transform="rotate(11.5865 130.725 503.164)" stroke="#CAD0EE" stroke-width="1.5"/>
<line x1="95.8959" y1="676.775" x2="57.4172" y2="864.452" stroke="#CAD0EE" stroke-width="1.5"/>
<line x1="107.25" y1="678.727" x2="173.985" y2="887.977" stroke="#CAD0EE" stroke-width="1.5"/>
<line x1="84.9789" y1="671.886" x2="-39.3909" y2="844.917" stroke="#CAD0EE" stroke-width="1.5"/>
<line x1="1741.78" y1="309.794" x2="1908.6" y2="152.229" stroke="#CAD0EE" stroke-width="1.5"/>
<path d="M1680.49 99.585C1675.28 94.0672 1675.53 85.3693 1681.05 80.1576C1686.57 74.946 1695.26 75.1942 1700.47 80.7119L1736.45 118.799L1716.47 137.672L1680.49 99.585Z" fill="white" stroke="#CAD0EE" stroke-width="1.5"/>
<path d="M1748.45 179.598L1767.04 171.617L1855.77 380.624L1826.18 360.72L1748.45 179.598Z" fill="white" stroke="#CAD0EE" stroke-width="1.5"/>
<path d="M1778.73 150.989L1769.71 169.1L1973.31 269.604L1955.13 238.92L1778.73 150.989Z" fill="white" stroke="#CAD0EE" stroke-width="1.5"/>
<circle cx="1746.92" cy="148.145" r="39.1052" transform="rotate(-43.3657 1746.92 148.145)" fill="white" stroke="#CAD0EE" stroke-width="1.5"/>
<circle cx="1746.97" cy="146.438" r="11.3273" transform="rotate(-43.3657 1746.97 146.438)" stroke="#CAD0EE" stroke-width="1.5"/>
</svg>
