<svg width="1920" height="1187" viewBox="0 0 1920 1187" fill="none" xmlns="http://www.w3.org/2000/svg">
<path d="M1700.89 96.596L1682.45 102.461C1674.09 105.12 1666.86 110.086 1662.17 116.39L1648.08 135.324C1645.85 138.309 1641.26 139.58 1637.82 138.164V138.164C1634.38 136.748 1633.39 133.18 1635.62 130.195L1650.47 110.236C1654.71 104.541 1660.96 99.8701 1668.28 96.9186L1685.15 90.1176" stroke="#CAD0EE" stroke-width="1.5"/>
<path d="M1816.6 144.862L1819.71 159.595C1821.12 166.275 1819.3 173.467 1814.6 179.772L1800.51 198.706C1798.29 201.691 1799.28 205.258 1802.72 206.674V206.674C1806.16 208.091 1810.75 206.819 1812.97 203.835L1827.83 183.875C1832.07 178.18 1834.07 171.765 1833.55 165.583L1832.34 151.34" stroke="#CAD0EE" stroke-width="1.5"/>
<rect x="0.245705" y="0.887094" width="219.757" height="58.0762" transform="matrix(0.924724 0.380638 -0.597118 0.802154 1692.72 31.2907)" fill="white" stroke="#CAD0EE" stroke-width="1.5"/>
<rect x="0.245705" y="0.887094" width="26.8663" height="15.5218" transform="matrix(0.924724 0.380638 -0.597118 0.802154 1747.05 114.816)" fill="white" stroke="#CAD0EE" stroke-width="1.5"/>
<rect x="0.245705" y="0.887094" width="77.9257" height="39.8386" transform="matrix(0.924724 0.380638 -0.597118 0.802154 1714.01 117.777)" fill="white" stroke="#CAD0EE" stroke-width="1.5"/>
<rect x="0.245705" y="0.887094" width="32.5396" height="25.2485" transform="matrix(0.924724 0.380638 -0.597118 0.802154 1736.82 22.687)" fill="white" stroke="#CAD0EE" stroke-width="1.5"/>
<rect x="0.245705" y="0.887094" width="15.5198" height="13.0901" transform="matrix(0.924724 0.380638 -0.597118 0.802154 1752.67 15.1983)" fill="white" stroke="#CAD0EE" stroke-width="1.5"/>
<line y1="-0.75" x2="68.0792" y2="-0.75" transform="matrix(0.924724 0.380638 -0.597118 0.802154 1727.79 6.37384)" stroke="#CAD0EE" stroke-width="1.5"/>
<rect x="0.245705" y="0.887094" width="32.5396" height="25.2485" transform="matrix(0.924724 0.380638 -0.597118 0.802154 1852.23 70.1954)" fill="white" stroke="#CAD0EE" stroke-width="1.5"/>
<rect x="0.245705" y="0.887094" width="15.5198" height="13.0901" transform="matrix(0.924724 0.380638 -0.597118 0.802154 1868.09 62.7067)" fill="white" stroke="#CAD0EE" stroke-width="1.5"/>
<line y1="-0.75" x2="68.0792" y2="-0.75" transform="matrix(0.924724 0.380638 -0.597118 0.802154 1843.2 53.8822)" stroke="#CAD0EE" stroke-width="1.5"/>
<path d="M1744.07 151.317C1742.57 153.325 1739.02 154.187 1736.04 152.961C1733.06 151.734 1732.16 149.037 1733.65 147.029C1735.14 145.021 1738.7 144.159 1741.68 145.386C1744.66 146.613 1745.56 149.309 1744.07 151.317Z" stroke="#CAD0EE" stroke-width="1.5"/>
<rect x="0.245705" y="0.887094" width="129.352" height="97.7289" transform="matrix(0.924724 0.380638 -0.597118 0.802154 186.613 897.96)" stroke="#CAD0EE" stroke-width="1.5"/>
<rect x="0.245705" y="0.887094" width="58.8932" height="74.0003" transform="matrix(0.924724 0.380638 -0.597118 0.802154 237.224 887.144)" fill="white" stroke="#CAD0EE" stroke-width="1.5"/>
<rect x="0.245705" y="0.887094" width="58.8932" height="38.2775" transform="matrix(0.924724 0.380638 -0.597118 0.802154 160.506 990.205)" fill="white" stroke="#CAD0EE" stroke-width="1.5"/>
<path d="M248.989 930.56C247.165 933.011 242.862 934.034 239.285 932.562C235.709 931.09 234.59 927.835 236.415 925.384C238.239 922.933 242.542 921.911 246.118 923.383C249.695 924.855 250.814 928.109 248.989 930.56Z" stroke="#CAD0EE" stroke-width="1.5"/>
<line y1="-0.75" x2="142.372" y2="-0.75" transform="matrix(-0.597118 0.802154 -0.924724 -0.380638 164.129 1033.52)" stroke="#CAD0EE" stroke-width="1.5"/>
<line y1="-0.75" x2="170.113" y2="-0.75" transform="matrix(0.00637682 0.879672 -1.09212 0.00437771 173.438 1037.36)" stroke="#CAD0EE" stroke-width="1.5"/>
<line y1="-0.75" x2="163.057" y2="-0.75" transform="matrix(-0.957393 0.534779 -0.649335 -0.642809 156.11 1027.96)" stroke="#CAD0EE" stroke-width="1.5"/>
<line y1="-0.75" x2="196.192" y2="-0.75" transform="matrix(0.903511 0.428565 -0.651079 0.75901 1576.85 976.484)" stroke="#CAD0EE" stroke-width="1.5"/>
<path d="M1770.54 911.761L1745.77 940.638L1724.74 930.66L1749.51 901.783C1753.69 896.904 1761.8 895.181 1767.61 897.937C1773.41 900.692 1774.73 906.882 1770.54 911.761Z" fill="white" stroke="#CAD0EE" stroke-width="1.5"/>
<path d="M1694.32 959.012L1705.41 969.825L1540.02 1062.85L1550.94 1040.31L1694.32 959.012Z" fill="white" stroke="#CAD0EE" stroke-width="1.5"/>
<path d="M1726.42 974.239L1708.56 971.32L1664.84 1122.06L1687.72 1105.19L1726.42 974.239Z" fill="white" stroke="#CAD0EE" stroke-width="1.5"/>
<path d="M1752.12 966.899C1741.6 979.166 1719.57 982.868 1702.86 974.942C1686.15 967.016 1681.38 950.602 1691.9 938.335C1702.43 926.069 1724.45 922.367 1741.16 930.292C1757.87 938.218 1762.65 954.633 1752.12 966.899Z" fill="white" stroke="#CAD0EE" stroke-width="1.5"/>
<path d="M1732.19 956.47C1729.23 959.924 1722.94 961.039 1718.08 958.735C1713.22 956.43 1711.93 951.716 1714.89 948.263C1717.85 944.809 1724.15 943.694 1729 945.998C1733.86 948.303 1735.16 953.016 1732.19 956.47Z" stroke="#CAD0EE" stroke-width="1.5"/>
</svg>
