<svg width="1920" height="950" viewBox="0 0 1920 950" fill="none" xmlns="http://www.w3.org/2000/svg">
<path d="M1704.14 141.277L1686.51 154.803C1678.75 160.755 1673.2 169.125 1670.73 178.587L1662.04 211.875C1660.95 216.028 1656.71 218.515 1652.56 217.431V217.431C1648.4 216.348 1645.92 212.102 1647 207.949L1656.12 173C1658.33 164.551 1662.9 156.91 1669.31 150.977L1685.14 136.319" stroke="#CAD0EE" stroke-width="1.5"/>
<path d="M1844.03 178.636L1852.8 199.052C1856.66 208.037 1857.42 218.053 1854.95 227.515L1846.26 260.803C1845.17 264.956 1847.66 269.201 1851.81 270.285V270.285C1855.97 271.369 1860.21 268.881 1861.3 264.728L1870.42 229.78C1872.62 221.331 1872.37 212.427 1869.68 204.12L1863.03 183.595" stroke="#CAD0EE" stroke-width="1.5"/>
<rect x="1671.68" y="51.5718" width="253.73" height="78.6683" transform="rotate(14.6285 1671.68 51.5718)" fill="white" stroke="#CAD0EE" stroke-width="1.5"/>
<rect x="1759.5" y="155.656" width="31.2217" height="21.4052" transform="rotate(14.6285 1759.5 155.656)" fill="white" stroke="#CAD0EE" stroke-width="1.5"/>
<rect x="1725.63" y="168.798" width="90.1209" height="54.127" transform="rotate(14.6285 1725.63 168.798)" fill="white" stroke="#CAD0EE" stroke-width="1.5"/>
<rect x="1715.19" y="27.4186" width="37.7661" height="34.4939" transform="rotate(14.6285 1715.19 27.4186)" fill="white" stroke="#CAD0EE" stroke-width="1.5"/>
<rect x="1729.23" y="12.4846" width="18.133" height="18.133" transform="rotate(14.6285 1729.23 12.4846)" fill="white" stroke="#CAD0EE" stroke-width="1.5"/>
<line x1="1699.98" y1="4.98909" x2="1775.96" y2="24.8224" stroke="#CAD0EE" stroke-width="1.5"/>
<rect x="1854.49" y="63.7802" width="37.7661" height="34.4939" transform="rotate(14.6285 1854.49 63.7802)" fill="white" stroke="#CAD0EE" stroke-width="1.5"/>
<rect x="1868.54" y="48.8461" width="18.133" height="18.133" transform="rotate(14.6285 1868.54 48.8461)" fill="white" stroke="#CAD0EE" stroke-width="1.5"/>
<line x1="1839.28" y1="41.3506" x2="1915.27" y2="61.1839" stroke="#CAD0EE" stroke-width="1.5"/>
<path d="M1769.79 207.449C1768.87 210.983 1765.26 213.1 1761.72 212.177C1758.19 211.255 1756.07 207.643 1756.99 204.109C1757.92 200.576 1761.53 198.459 1765.06 199.381C1768.6 200.304 1770.71 203.916 1769.79 207.449Z" stroke="#CAD0EE" stroke-width="1.5"/>
<line x1="-24.4859" y1="688.609" x2="197.545" y2="746.561" stroke="#CAD0EE" stroke-width="1.5"/>
<path d="M147.881 532.165L134.65 582.857L108.055 575.915L121.286 525.223C123.203 517.88 130.71 513.48 138.054 515.397C145.398 517.314 149.798 524.821 147.881 532.165Z" fill="white" stroke="#CAD0EE" stroke-width="1.5"/>
<path d="M89.4511 625.254L106.075 636.794L-24.1342 822.812L-22.9425 787.165L89.4511 625.254Z" fill="white" stroke="#CAD0EE" stroke-width="1.5"/>
<path d="M129.763 635.776L109.621 637.719L132.308 863.644L148.69 831.962L129.763 635.776Z" fill="white" stroke="#CAD0EE" stroke-width="1.5"/>
<circle cx="115.317" cy="607.295" r="39.1052" transform="rotate(14.6285 115.317 607.295)" fill="white" stroke="#CAD0EE" stroke-width="1.5"/>
<circle cx="116.79" cy="606.432" r="11.3273" transform="rotate(14.6285 116.79 606.432)" stroke="#CAD0EE" stroke-width="1.5"/>
<rect x="1745.79" y="527.422" width="149.443" height="132.027" transform="rotate(22.5885 1745.79 527.422)" stroke="#CAD0EE" stroke-width="1.5"/>
<rect x="1798.92" y="505.51" width="68.1661" height="100.096" transform="rotate(22.5885 1798.92 505.51)" fill="white" stroke="#CAD0EE" stroke-width="1.5"/>
<rect x="1732.51" y="665.136" width="68.1661" height="52.0263" transform="rotate(22.5885 1732.51 665.136)" fill="white" stroke="#CAD0EE" stroke-width="1.5"/>
<circle cx="1811.72" cy="563.471" r="7.95827" transform="rotate(22.5885 1811.72 563.471)" stroke="#CAD0EE" stroke-width="1.5"/>
<line x1="1744.4" y1="727.244" x2="1670.82" y2="904.129" stroke="#CAD0EE" stroke-width="1.5"/>
<line x1="1755.18" y1="731.328" x2="1780.75" y2="949.467" stroke="#CAD0EE" stroke-width="1.5"/>
<line x1="1734.62" y1="720.362" x2="1579.51" y2="866.477" stroke="#CAD0EE" stroke-width="1.5"/>
</svg>
