<svg width="1919" height="1091" viewBox="0 0 1919 1091" fill="none" xmlns="http://www.w3.org/2000/svg">
<rect x="0.914345" y="0.529625" width="145.769" height="130.558" transform="matrix(0.965315 -0.261087 0.253811 0.967254 28.9691 723.296)" stroke="#CAD0EE" stroke-width="1.5"/>
<rect x="0.914345" y="0.529625" width="66.4703" height="98.9786" transform="matrix(0.965315 -0.261087 0.253811 0.967254 57.0423 674.068)" fill="white" stroke="#CAD0EE" stroke-width="1.5"/>
<rect x="0.914345" y="0.529625" width="66.4703" height="51.4374" transform="matrix(0.965315 -0.261087 0.253811 0.967254 100.441 839.455)" fill="white" stroke="#CAD0EE" stroke-width="1.5"/>
<path d="M109.816 710.122C110.92 714.332 108.454 718.635 104.334 719.75C100.213 720.864 95.9652 718.377 94.8606 714.167C93.756 709.958 96.2221 705.654 100.343 704.54C104.463 703.425 108.711 705.913 109.816 710.122Z" stroke="#CAD0EE" stroke-width="1.5"/>
<line y1="-0.75" x2="189.474" y2="-0.75" transform="matrix(0.253811 0.967254 -0.965315 0.261087 146.786 881.53)" stroke="#CAD0EE" stroke-width="1.5"/>
<line y1="-0.75" x2="216.52" y2="-0.75" transform="matrix(0.689284 0.720076 -0.713868 0.704884 157.721 878.572)" stroke="#CAD0EE" stroke-width="1.5"/>
<line y1="-0.75" x2="210.274" y2="-0.75" transform="matrix(-0.157873 0.990274 -0.983911 -0.162025 135.122 881.711)" stroke="#CAD0EE" stroke-width="1.5"/>
<path d="M1708.18 126.959L1690.15 134.794C1682.23 138.233 1675.68 144.236 1671.53 151.863L1656.78 178.925C1654.96 182.26 1650.81 183.455 1647.5 181.593V181.593C1644.18 179.732 1642.97 175.519 1644.79 172.184L1660.27 143.778C1663.98 136.972 1669.53 131.385 1676.28 127.668L1693.04 118.444" stroke="#CAD0EE" stroke-width="1.5"/>
<path d="M1819.51 190.396L1822.55 210.077C1823.88 218.717 1822.35 227.54 1818.2 235.168L1803.45 262.23C1801.63 265.565 1802.84 269.777 1806.15 271.639V271.639C1809.46 273.5 1813.62 272.306 1815.44 268.971L1830.92 240.565C1834.63 233.758 1836.34 226.012 1835.86 218.229L1834.66 198.911" stroke="#CAD0EE" stroke-width="1.5"/>
<rect x="0.294864" y="1.02615" width="224.349" height="70.0318" transform="matrix(0.871659 0.490113 -0.478507 0.878084 1700.31 40.9992)" fill="white" stroke="#CAD0EE" stroke-width="1.5"/>
<rect x="0.294864" y="1.02615" width="27.455" height="18.9376" transform="matrix(0.871659 0.490113 -0.478507 0.878084 1752.6 150.779)" fill="white" stroke="#CAD0EE" stroke-width="1.5"/>
<rect x="0.294864" y="1.02615" width="79.574" height="48.1343" transform="matrix(0.871659 0.490113 -0.478507 0.878084 1720.8 154.671)" fill="white" stroke="#CAD0EE" stroke-width="1.5"/>
<rect x="0.294864" y="1.02615" width="33.246" height="30.6163" transform="matrix(0.871659 0.490113 -0.478507 0.878084 1742.74 29.6912)" fill="white" stroke="#CAD0EE" stroke-width="1.5"/>
<rect x="0.294864" y="1.02615" width="15.873" height="16.018" transform="matrix(0.871659 0.490113 -0.478507 0.878084 1758 19.8484)" fill="white" stroke="#CAD0EE" stroke-width="1.5"/>
<line y1="-0.75" x2="69.492" y2="-0.75" transform="matrix(0.871659 0.490113 -0.478507 0.878084 1734.06 8.37738)" stroke="#CAD0EE" stroke-width="1.5"/>
<rect x="0.294864" y="1.02615" width="33.246" height="30.6163" transform="matrix(0.871659 0.490113 -0.478507 0.878084 1853.8 92.1329)" fill="white" stroke="#CAD0EE" stroke-width="1.5"/>
<rect x="0.294864" y="1.02615" width="15.873" height="16.018" transform="matrix(0.871659 0.490113 -0.478507 0.878084 1869.05 82.2902)" fill="white" stroke="#CAD0EE" stroke-width="1.5"/>
<line y1="-0.75" x2="69.492" y2="-0.75" transform="matrix(0.871659 0.490113 -0.478507 0.878084 1845.11 70.8191)" stroke="#CAD0EE" stroke-width="1.5"/>
<path d="M1749.73 198.889C1748.19 201.716 1744.7 202.731 1741.92 201.173C1739.15 199.615 1738.14 196.065 1739.68 193.238C1741.23 190.411 1744.72 189.396 1747.49 190.953C1750.26 192.511 1751.28 196.061 1749.73 198.889Z" stroke="#CAD0EE" stroke-width="1.5"/>
</svg>
