<svg width="1686" height="1516" viewBox="0 0 1686 1516" fill="none" xmlns="http://www.w3.org/2000/svg">
<rect x="33.5283" y="1057.32" width="181.604" height="160.477" transform="rotate(-4.75294 33.5283 1057.32)" stroke="#CAD0EE" stroke-width="1.5"/>
<rect x="78.5713" y="1004.1" width="83.0096" height="121.743" transform="rotate(-4.75294 78.5713 1004.1)" fill="white" stroke="#CAD0EE" stroke-width="1.5"/>
<rect x="95.9482" y="1213.11" width="83.0096" height="63.431" transform="rotate(-4.75294 95.9482 1213.11)" fill="white" stroke="#CAD0EE" stroke-width="1.5"/>
<path d="M134.61 1058.76C135.059 1064.16 131.045 1068.9 125.644 1069.35C120.242 1069.8 115.5 1065.79 115.05 1060.39C114.601 1054.98 118.616 1050.24 124.017 1049.79C129.419 1049.34 134.161 1053.36 134.61 1058.76Z" stroke="#CAD0EE" stroke-width="1.5"/>
<line x1="143.376" y1="1273.57" x2="162.633" y2="1505.17" stroke="#CAD0EE" stroke-width="1.5"/>
<line x1="157.286" y1="1272.04" x2="306.38" y2="1492.85" stroke="#CAD0EE" stroke-width="1.5"/>
<line x1="129.008" y1="1271.54" x2="43.283" y2="1515.4" stroke="#CAD0EE" stroke-width="1.5"/>
<path d="M1511.34 117.946L1493.21 123.217C1485.23 125.538 1478.25 130.451 1473.38 137.181L1456.24 160.855C1454.1 163.809 1449.97 164.469 1447.02 162.33V162.33C1444.06 160.191 1443.4 156.063 1445.54 153.109L1463.54 128.254C1467.89 122.245 1473.87 117.606 1480.77 114.885L1497.83 108.162" stroke="#CAD0EE" stroke-width="1.5"/>
<path d="M1610.57 190.664L1611.22 209.532C1611.5 217.836 1609.01 225.998 1604.14 232.727L1586.99 256.402C1584.85 259.355 1585.51 263.484 1588.47 265.623V265.623C1591.42 267.761 1595.55 267.101 1597.69 264.147L1615.69 239.292C1620.04 233.283 1622.58 226.154 1623.01 218.748L1624.08 200.448" stroke="#CAD0EE" stroke-width="1.5"/>
<rect x="1513.33" y="37.0747" width="215.353" height="66.6142" transform="rotate(35.9105 1513.33 37.0747)" fill="white" stroke="#CAD0EE" stroke-width="1.5"/>
<rect x="1550.75" y="146.559" width="26.3017" height="17.9612" transform="rotate(35.9105 1550.75 146.559)" fill="white" stroke="#CAD0EE" stroke-width="1.5"/>
<rect x="1519.89" y="146.519" width="76.3448" height="45.7629" transform="rotate(35.9105 1519.89 146.519)" fill="white" stroke="#CAD0EE" stroke-width="1.5"/>
<rect x="1555.22" y="31.3688" width="31.862" height="29.0819" transform="rotate(35.9105 1555.22 31.3688)" fill="white" stroke="#CAD0EE" stroke-width="1.5"/>
<rect x="1570.94" y="23.8763" width="15.181" height="15.181" transform="rotate(35.9105 1570.94 23.8763)" fill="white" stroke="#CAD0EE" stroke-width="1.5"/>
<line x1="1550.14" y1="8.67154" x2="1604.18" y2="47.8066" stroke="#CAD0EE" stroke-width="1.5"/>
<rect x="1654.3" y="103.117" width="31.862" height="29.0819" transform="rotate(35.9105 1654.3 103.117)" fill="white" stroke="#CAD0EE" stroke-width="1.5"/>
<rect x="1670.02" y="95.6242" width="15.181" height="15.181" transform="rotate(35.9105 1670.02 95.6242)" fill="white" stroke="#CAD0EE" stroke-width="1.5"/>
<line x1="1649.21" y1="80.4194" x2="1703.26" y2="119.554" stroke="#CAD0EE" stroke-width="1.5"/>
<path d="M1542.82 190.514C1541.03 192.977 1537.59 193.528 1535.13 191.744C1532.66 189.961 1532.11 186.519 1533.9 184.056C1535.68 181.594 1539.12 181.043 1541.59 182.826C1544.05 184.61 1544.6 188.052 1542.82 190.514Z" stroke="#CAD0EE" stroke-width="1.5"/>
</svg>
