<svg width="287" height="472" viewBox="0 0 287 472" fill="none" xmlns="http://www.w3.org/2000/svg">
<rect x="76.0069" y="46.9925" width="159.607" height="141.018" transform="rotate(7.24171 76.0069 46.9925)" stroke="#CAD0EE" stroke-width="1.5"/>
<rect x="124.505" y="9.43054" width="72.8571" height="106.938" transform="rotate(7.24171 124.505 9.43054)" fill="white" stroke="#CAD0EE" stroke-width="1.5"/>
<rect x="101.243" y="192.489" width="72.8572" height="55.6306" transform="rotate(7.24171 101.243 192.489)" fill="white" stroke="#CAD0EE" stroke-width="1.5"/>
<path d="M162.574 66.6054C161.979 71.2869 157.702 74.5997 153.021 74.0048C148.339 73.41 145.026 69.1327 145.621 64.4512C146.216 59.7698 150.493 56.457 155.175 57.0519C159.856 57.6467 163.169 61.924 162.574 66.6054Z" stroke="#CAD0EE" stroke-width="1.5"/>
<line x1="131.019" y1="253.107" x2="105.243" y2="455.958" stroke="#CAD0EE" stroke-width="1.5"/>
<line x1="143.264" y1="254.292" x2="231.207" y2="471.594" stroke="#CAD0EE" stroke-width="1.5"/>
<line x1="119.012" y1="248.767" x2="0.639856" y2="442.975" stroke="#CAD0EE" stroke-width="1.5"/>
</svg>
