<svg width="377" height="382" viewBox="0 0 377 382" fill="none" xmlns="http://www.w3.org/2000/svg">
<path d="M1.43539 303.287L296.386 380.272L355.525 153.696L247.602 125.527L215.007 250.407C209.91 269.934 199.189 287.534 184.174 301.021L152.008 329.914L138.579 289.625C132.108 270.212 131.567 249.312 137.023 229.59L171.322 105.617L60.5742 76.7111L1.43539 303.287Z" stroke="#CAD0EE" stroke-width="1.5"/>
<path d="M44.4995 138.299L59.7556 142.281L85.0579 160.956L129.255 160.421L152.642 172.561" stroke="#CAD0EE" stroke-width="1.5"/>
<path d="M231.527 187.116L246.783 191.098L272.086 209.772L316.283 209.238L337.975 220.935" stroke="#CAD0EE" stroke-width="1.5"/>
<path d="M18.5435 237.744L33.7995 241.726L59.1019 260.4L103.299 259.866L135.947 280.458" stroke="#CAD0EE" stroke-width="1.5"/>
<path d="M197.095 284.348L220.827 290.542L246.129 309.217L290.327 308.683L311.109 326.177" stroke="#CAD0EE" stroke-width="1.5"/>
<path d="M30.194 193.107L86.9004 160.833" stroke="#CAD0EE" stroke-width="1.5"/>
<path d="M217.222 241.923L273.928 209.65" stroke="#CAD0EE" stroke-width="1.5"/>
<path d="M58.684 259.688L141.901 211.4" stroke="#CAD0EE" stroke-width="1.5"/>
<path d="M245.712 308.504L328.929 260.216" stroke="#CAD0EE" stroke-width="1.5"/>
<path d="M23.0635 238.924L145.739 168.949" stroke="#CAD0EE" stroke-width="1.5"/>
<path d="M210.091 287.74L332.767 217.765" stroke="#CAD0EE" stroke-width="1.5"/>
<path d="M203.633 33.3516L254.166 46.5411L203.22 241.726C198.125 261.248 187.576 278.915 172.809 292.662L158.991 305.524L153.428 286.951C147.84 268.298 147.485 248.469 152.403 229.628L203.633 33.3516Z" stroke="#CAD0EE" stroke-width="1.5"/>
<path d="M93.9199 110.159C92.8842 114.127 88.8278 116.504 84.8597 115.469C80.8916 114.433 78.5145 110.377 79.5502 106.409C80.5858 102.441 84.6422 100.064 88.6103 101.099C92.5784 102.135 94.9556 106.191 93.9199 110.159Z" stroke="#CAD0EE" stroke-width="1.5"/>
<path d="M280.948 158.975C279.912 162.943 275.856 165.32 271.888 164.285C267.919 163.249 265.542 159.193 266.578 155.225C267.614 151.257 271.67 148.88 275.638 149.915C279.606 150.951 281.983 155.007 280.948 158.975Z" stroke="#CAD0EE" stroke-width="1.5"/>
<path d="M121.042 117.239C120.006 121.206 115.95 123.584 111.982 122.548C108.014 121.512 105.637 117.456 106.672 113.488C107.708 109.52 111.764 107.143 115.732 108.178C119.7 109.214 122.078 113.271 121.042 117.239Z" stroke="#CAD0EE" stroke-width="1.5"/>
<path d="M308.07 166.055C307.034 170.023 302.978 172.4 299.01 171.364C295.042 170.328 292.664 166.272 293.7 162.304C294.736 158.336 298.792 155.959 302.76 156.995C306.728 158.03 309.105 162.087 308.07 166.055Z" stroke="#CAD0EE" stroke-width="1.5"/>
<path d="M146.789 120.338C145.753 124.306 141.696 126.683 137.728 125.647C133.76 124.611 131.383 120.555 132.419 116.587C133.454 112.619 137.511 110.242 141.479 111.278C145.447 112.313 147.824 116.37 146.789 120.338Z" stroke="#CAD0EE" stroke-width="1.5"/>
<path d="M333.816 169.154C332.781 173.122 328.724 175.499 324.756 174.463C320.788 173.427 318.411 169.371 319.447 165.403C320.482 161.435 324.539 159.058 328.507 160.094C332.475 161.129 334.852 165.186 333.816 169.154Z" stroke="#CAD0EE" stroke-width="1.5"/>
<path d="M144.28 143.823C143.244 147.791 139.188 150.168 135.22 149.133C131.251 148.097 128.874 144.041 129.91 140.073C130.946 136.105 135.002 133.728 138.97 134.763C142.938 135.799 145.315 139.855 144.28 143.823Z" stroke="#CAD0EE" stroke-width="1.5"/>
<path d="M331.308 192.639C330.272 196.607 326.216 198.985 322.247 197.949C318.279 196.913 315.902 192.857 316.938 188.889C317.974 184.921 322.03 182.544 325.998 183.579C329.966 184.615 332.343 188.671 331.308 192.639Z" stroke="#CAD0EE" stroke-width="1.5"/>
<path d="M114.848 140.969C113.812 144.937 109.756 147.314 105.787 146.279C101.819 145.243 99.4422 141.187 100.478 137.219C101.514 133.251 105.57 130.873 109.538 131.909C113.506 132.945 115.883 137.001 114.848 140.969Z" stroke="#CAD0EE" stroke-width="1.5"/>
<path d="M301.876 189.786C300.84 193.754 296.784 196.131 292.816 195.095C288.848 194.059 286.471 190.003 287.506 186.035C288.542 182.067 292.598 179.69 296.566 180.726C300.534 181.762 302.912 185.818 301.876 189.786Z" stroke="#CAD0EE" stroke-width="1.5"/>
<path d="M85.4659 133.3C84.5931 136.644 81.1748 138.647 77.8308 137.775C74.4868 136.902 72.4836 133.483 73.3563 130.14C74.2291 126.796 77.6475 124.792 80.9914 125.665C84.3354 126.538 86.3387 129.956 85.4659 133.3Z" stroke="#CAD0EE" stroke-width="1.5"/>
<path d="M272.494 182.117C271.621 185.461 268.203 187.464 264.859 186.591C261.515 185.718 259.511 182.3 260.384 178.956C261.257 175.612 264.675 173.609 268.019 174.482C271.363 175.355 273.367 178.773 272.494 182.117Z" stroke="#CAD0EE" stroke-width="1.5"/>
<line x1="24.8945" y1="271.217" x2="62.1871" y2="280.95" stroke="#CAD0EE" stroke-width="1.5"/>
<line x1="193.276" y1="315.166" x2="226.049" y2="323.72" stroke="#CAD0EE" stroke-width="1.5"/>
<line x1="79.7778" y1="278.3" x2="117.07" y2="288.033" stroke="#CAD0EE" stroke-width="1.5"/>
<line x1="241.379" y1="320.479" x2="274.152" y2="329.033" stroke="#CAD0EE" stroke-width="1.5"/>
<line x1="36.2915" y1="292.297" x2="73.584" y2="302.031" stroke="#CAD0EE" stroke-width="1.5"/>
<line x1="202.413" y1="335.657" x2="235.185" y2="344.211" stroke="#CAD0EE" stroke-width="1.5"/>
<line x1="93.9257" y1="307.34" x2="131.218" y2="317.074" stroke="#CAD0EE" stroke-width="1.5"/>
<line x1="253.267" y1="348.93" x2="286.039" y2="357.484" stroke="#CAD0EE" stroke-width="1.5"/>
</svg>
