<svg width="1876" height="1286" viewBox="0 0 1876 1286" fill="none" xmlns="http://www.w3.org/2000/svg">
<path d="M1678.07 156.493L1657.1 168.94C1647.88 174.418 1640.74 182.815 1636.82 192.804L1623.03 227.944C1621.31 232.328 1616.36 234.487 1611.98 232.767V232.767C1607.59 231.047 1605.43 226.098 1607.15 221.714L1621.63 184.821C1625.13 175.902 1631.11 168.17 1638.86 162.538L1658.01 148.624" stroke="#CAD0EE" stroke-width="1.5"/>
<path d="M1825.63 215.362L1832.54 238.744C1835.58 249.036 1835.1 260.046 1831.18 270.035L1817.39 305.174C1815.67 309.558 1817.83 314.507 1822.21 316.227V316.227C1826.6 317.947 1831.54 315.788 1833.26 311.404L1847.74 274.511C1851.24 265.592 1852.12 255.857 1850.26 246.457L1845.69 223.231" stroke="#CAD0EE" stroke-width="1.5"/>
<rect x="1654.31" y="54.4471" width="278.548" height="86.4637" transform="rotate(21.4251 1654.31 54.4471)" fill="white" stroke="#CAD0EE" stroke-width="1.5"/>
<rect x="1736.47" y="179.253" width="34.4036" height="23.6325" transform="rotate(21.4251 1736.47 179.253)" fill="white" stroke="#CAD0EE" stroke-width="1.5"/>
<rect x="1697.87" y="189.174" width="99.03" height="59.5361" transform="rotate(21.4251 1697.87 189.174)" fill="white" stroke="#CAD0EE" stroke-width="1.5"/>
<rect x="1704.85" y="33.7808" width="41.5843" height="37.9939" transform="rotate(21.4251 1704.85 33.7808)" fill="white" stroke="#CAD0EE" stroke-width="1.5"/>
<rect x="1722.09" y="19.3333" width="20.0421" height="20.0421" transform="rotate(21.4251 1722.09 19.3333)" fill="white" stroke="#CAD0EE" stroke-width="1.5"/>
<line x1="1691.2" y1="7.53034" x2="1771.41" y2="39.0064" stroke="#CAD0EE" stroke-width="1.5"/>
<rect x="1851.9" y="91.4873" width="41.5843" height="37.9939" transform="rotate(21.4251 1851.9 91.4873)" fill="white" stroke="#CAD0EE" stroke-width="1.5"/>
<rect x="1869.14" y="77.0399" width="20.0421" height="20.0421" transform="rotate(21.4251 1869.14 77.0399)" fill="white" stroke="#CAD0EE" stroke-width="1.5"/>
<line x1="1838.26" y1="65.2369" x2="1918.47" y2="96.713" stroke="#CAD0EE" stroke-width="1.5"/>
<circle cx="1734.25" cy="234.464" r="7.3283" transform="rotate(21.4251 1734.25 234.464)" stroke="#CAD0EE" stroke-width="1.5"/>
<line x1="1480.47" y1="1064.93" x2="1694.09" y2="1148.75" stroke="#CAD0EE" stroke-width="1.5"/>
<path d="M1670.14 929.981L1651.01 978.751L1625.42 968.711L1644.56 919.941C1647.33 912.875 1655.31 909.395 1662.37 912.168C1669.44 914.94 1672.92 922.916 1670.14 929.981Z" fill="white" stroke="#CAD0EE" stroke-width="1.5"/>
<path d="M1601.11 1015.5L1616.25 1028.93L1464.94 1198.23L1470.34 1162.97L1601.11 1015.5Z" fill="white" stroke="#CAD0EE" stroke-width="1.5"/>
<path d="M1639.89 1030.72L1619.66 1030.27L1615.45 1257.29L1635.47 1227.77L1639.89 1030.72Z" fill="white" stroke="#CAD0EE" stroke-width="1.5"/>
<circle cx="1628.92" cy="1000.73" r="39.1052" transform="rotate(21.4251 1628.92 1000.73)" fill="white" stroke="#CAD0EE" stroke-width="1.5"/>
<circle cx="1630.48" cy="1000.05" r="11.3273" transform="rotate(21.4251 1630.48 1000.05)" stroke="#CAD0EE" stroke-width="1.5"/>
<rect x="36.7147" y="923.334" width="149.443" height="132.027" transform="rotate(-20.0613 36.7147 923.334)" stroke="#CAD0EE" stroke-width="1.5"/>
<rect x="60.9481" y="871.22" width="68.1661" height="100.096" transform="rotate(-20.0613 60.9481 871.22)" fill="white" stroke="#CAD0EE" stroke-width="1.5"/>
<rect x="120.253" y="1033.62" width="68.1661" height="52.0263" transform="rotate(-20.0613 120.253 1033.62)" fill="white" stroke="#CAD0EE" stroke-width="1.5"/>
<circle cx="109.633" cy="905.177" r="7.95827" transform="rotate(-20.0613 109.633 905.177)" stroke="#CAD0EE" stroke-width="1.5"/>
<line x1="171.077" y1="1071.24" x2="236.794" y2="1251.2" stroke="#CAD0EE" stroke-width="1.5"/>
<line x1="181.766" y1="1066.95" x2="348.369" y2="1210.07" stroke="#CAD0EE" stroke-width="1.5"/>
<line x1="159.218" y1="1072.81" x2="144.132" y2="1285.37" stroke="#CAD0EE" stroke-width="1.5"/>
</svg>
