<svg width="361" height="395" viewBox="0 0 361 395" fill="none" xmlns="http://www.w3.org/2000/svg">
<path d="M98.304 268.517L96.3101 295.48C95.4325 307.346 98.5354 319.167 105.128 329.072L128.32 363.919C131.214 368.267 130.035 374.137 125.688 377.03V377.03C121.34 379.924 115.47 378.745 112.577 374.398L88.2271 337.811C82.3404 328.966 79.107 318.622 78.9083 307.999L78.4174 281.753" stroke="#CAD0EE" stroke-width="1.5"/>
<path d="M245.519 171.734L271.161 180.303C282.446 184.075 292.153 191.5 298.745 201.406L321.938 236.253C324.831 240.601 330.701 241.779 335.049 238.886V238.886C339.396 235.993 340.575 230.123 337.681 225.775L313.332 189.189C307.445 180.344 299.151 173.368 289.428 169.084L265.406 158.498" stroke="#CAD0EE" stroke-width="1.5"/>
<rect x="-9.66615" y="225.299" width="309.049" height="96.0442" transform="rotate(-33.6456 -9.66615 225.299)" fill="white" stroke="#CAD0EE" stroke-width="1.5"/>
<rect x="155.967" y="229.845" width="38.3139" height="26.3698" transform="rotate(-33.6456 155.967 229.845)" fill="white" stroke="#CAD0EE" stroke-width="1.5"/>
<rect x="140.475" y="271.242" width="109.979" height="66.1837" transform="rotate(-33.6456 140.475 271.242)" fill="white" stroke="#CAD0EE" stroke-width="1.5"/>
<rect x="3.63072" y="166.233" width="46.2767" height="42.2953" transform="rotate(-33.6456 3.63072 166.233)" fill="white" stroke="#CAD0EE" stroke-width="1.5"/>
<rect x="1.44224" y="141.386" width="22.3884" height="22.3884" transform="rotate(-33.6456 1.44224 141.386)" fill="white" stroke="#CAD0EE" stroke-width="1.5"/>
<line x1="-28.7407" y1="162.063" x2="50.8057" y2="109.122" stroke="#CAD0EE" stroke-width="1.5"/>
<rect x="149.466" y="69.1739" width="46.2767" height="42.2953" transform="rotate(-33.6456 149.466 69.1739)" fill="white" stroke="#CAD0EE" stroke-width="1.5"/>
<rect x="147.278" y="44.327" width="22.3884" height="22.3884" transform="rotate(-33.6456 147.278 44.327)" fill="white" stroke="#CAD0EE" stroke-width="1.5"/>
<line x1="117.095" y1="65.0041" x2="196.641" y2="12.0623" stroke="#CAD0EE" stroke-width="1.5"/>
<circle cx="204.865" cy="266.943" r="8.20814" transform="rotate(-33.6456 204.865 266.943)" stroke="#CAD0EE" stroke-width="1.5"/>
</svg>
