<svg width="1849" height="1236" viewBox="0 0 1849 1236" fill="none" xmlns="http://www.w3.org/2000/svg">
<path d="M1591.06 156.493L1570.1 168.94C1560.87 174.418 1553.74 182.815 1549.82 192.804L1536.03 227.944C1534.31 232.328 1529.36 234.487 1524.98 232.767V232.767C1520.59 231.047 1518.43 226.098 1520.15 221.714L1534.63 184.821C1538.13 175.902 1544.11 168.17 1551.86 162.538L1571.01 148.624" stroke="#CAD0EE" stroke-width="1.5"/>
<path d="M1738.63 215.362L1745.54 238.744C1748.57 249.036 1748.1 260.046 1744.18 270.035L1730.39 305.174C1728.67 309.558 1730.83 314.507 1735.21 316.227V316.227C1739.59 317.947 1744.54 315.788 1746.26 311.404L1760.74 274.511C1764.24 265.592 1765.12 255.857 1763.26 246.457L1758.69 223.231" stroke="#CAD0EE" stroke-width="1.5"/>
<rect x="1567.31" y="54.4471" width="278.548" height="86.4637" transform="rotate(21.4251 1567.31 54.4471)" fill="white" stroke="#CAD0EE" stroke-width="1.5"/>
<rect x="1649.47" y="179.253" width="34.4036" height="23.6325" transform="rotate(21.4251 1649.47 179.253)" fill="white" stroke="#CAD0EE" stroke-width="1.5"/>
<rect x="1610.87" y="189.174" width="99.03" height="59.5361" transform="rotate(21.4251 1610.87 189.174)" fill="white" stroke="#CAD0EE" stroke-width="1.5"/>
<rect x="1617.85" y="33.7808" width="41.5843" height="37.9939" transform="rotate(21.4251 1617.85 33.7808)" fill="white" stroke="#CAD0EE" stroke-width="1.5"/>
<rect x="1635.09" y="19.3333" width="20.0421" height="20.0421" transform="rotate(21.4251 1635.09 19.3333)" fill="white" stroke="#CAD0EE" stroke-width="1.5"/>
<line x1="1604.2" y1="7.53034" x2="1684.41" y2="39.0064" stroke="#CAD0EE" stroke-width="1.5"/>
<rect x="1764.9" y="91.4873" width="41.5843" height="37.9939" transform="rotate(21.4251 1764.9 91.4873)" fill="white" stroke="#CAD0EE" stroke-width="1.5"/>
<rect x="1782.14" y="77.0399" width="20.0421" height="20.0421" transform="rotate(21.4251 1782.14 77.0399)" fill="white" stroke="#CAD0EE" stroke-width="1.5"/>
<line x1="1751.26" y1="65.2369" x2="1831.47" y2="96.713" stroke="#CAD0EE" stroke-width="1.5"/>
<circle cx="1647.25" cy="234.464" r="7.3283" transform="rotate(21.4251 1647.25 234.464)" stroke="#CAD0EE" stroke-width="1.5"/>
<rect x="1.85207" y="877.628" width="149.443" height="132.027" transform="rotate(-22.2373 1.85207 877.628)" stroke="#CAD0EE" stroke-width="1.5"/>
<rect x="24.0894" y="824.632" width="68.1661" height="100.096" transform="rotate(-22.2373 24.0894 824.632)" fill="white" stroke="#CAD0EE" stroke-width="1.5"/>
<rect x="89.5171" y="984.662" width="68.1661" height="52.0263" transform="rotate(-22.2373 89.5171 984.662)" fill="white" stroke="#CAD0EE" stroke-width="1.5"/>
<circle cx="74.028" cy="856.717" r="7.95827" transform="rotate(-22.2373 74.028 856.717)" stroke="#CAD0EE" stroke-width="1.5"/>
<line x1="141.733" y1="1020.33" x2="214.236" y2="1197.66" stroke="#CAD0EE" stroke-width="1.5"/>
<line x1="152.253" y1="1015.63" x2="324.17" y2="1152.32" stroke="#CAD0EE" stroke-width="1.5"/>
<line x1="129.942" y1="1022.35" x2="122.938" y2="1235.32" stroke="#CAD0EE" stroke-width="1.5"/>
</svg>
