<svg width="1905" height="1576" viewBox="0 0 1905 1576" fill="none" xmlns="http://www.w3.org/2000/svg">
<line x1="1642.47" y1="194.926" x2="1856.09" y2="278.748" stroke="#CAD0EE" stroke-width="1.5"/>
<path d="M1832.14 59.9809L1813.01 108.751L1787.42 98.7107L1806.56 49.9408C1809.33 42.8753 1817.31 39.3952 1824.37 42.1677C1831.44 44.9402 1834.92 52.9154 1832.14 59.9809Z" fill="white" stroke="#CAD0EE" stroke-width="1.5"/>
<path d="M1763.11 145.501L1778.25 158.927L1626.94 328.228L1632.34 292.972L1763.11 145.501Z" fill="white" stroke="#CAD0EE" stroke-width="1.5"/>
<path d="M1801.89 160.719L1781.66 160.265L1777.45 387.288L1797.47 357.767L1801.89 160.719Z" fill="white" stroke="#CAD0EE" stroke-width="1.5"/>
<circle cx="1790.92" cy="130.729" r="39.1052" transform="rotate(21.4251 1790.92 130.729)" fill="white" stroke="#CAD0EE" stroke-width="1.5"/>
<circle cx="1792.48" cy="130.046" r="11.3273" transform="rotate(21.4251 1792.48 130.046)" stroke="#CAD0EE" stroke-width="1.5"/>
<rect x="32.6154" y="1202.64" width="149.443" height="132.027" transform="rotate(-12.9139 32.6154 1202.64)" stroke="#CAD0EE" stroke-width="1.5"/>
<rect x="63.1447" y="1153.95" width="68.1661" height="100.096" transform="rotate(-12.9139 63.1447 1153.95)" fill="white" stroke="#CAD0EE" stroke-width="1.5"/>
<rect x="101.781" y="1322.46" width="68.1661" height="52.0263" transform="rotate(-12.9139 101.781 1322.46)" fill="white" stroke="#CAD0EE" stroke-width="1.5"/>
<circle cx="107.225" cy="1193.7" r="7.95827" transform="rotate(-12.9139 107.225 1193.7)" stroke="#CAD0EE" stroke-width="1.5"/>
<line x1="147.53" y1="1366.12" x2="190.346" y2="1552.85" stroke="#CAD0EE" stroke-width="1.5"/>
<line x1="158.671" y1="1363.19" x2="306.172" y2="1525.92" stroke="#CAD0EE" stroke-width="1.5"/>
<line x1="135.568" y1="1366.2" x2="94.1525" y2="1575.22" stroke="#CAD0EE" stroke-width="1.5"/>
</svg>
