<svg width="1920" height="844" viewBox="0 0 1920 844" fill="none" xmlns="http://www.w3.org/2000/svg">
<line x1="-55.1371" y1="179.871" x2="141.548" y2="298.071" stroke="#CAD0EE" stroke-width="1.5"/>
<path d="M130.786 64.2116C134.696 57.706 143.139 55.6016 149.644 59.5112C156.15 63.4208 158.254 71.8639 154.345 78.3695L127.358 123.275L103.8 109.117L130.786 64.2116Z" fill="white" stroke="#CAD0EE" stroke-width="1.5"/>
<path d="M72.0398 151.209L84.7356 166.967L-92.6362 308.729L-81.4426 274.864L72.0398 151.209Z" fill="white" stroke="#CAD0EE" stroke-width="1.5"/>
<path d="M107.751 172.669L87.8775 168.855L45.9477 392.011L70.5975 366.233L107.751 172.669Z" fill="white" stroke="#CAD0EE" stroke-width="1.5"/>
<circle cx="101.92" cy="141.27" r="39.1052" transform="rotate(31.0042 101.92 141.27)" fill="white" stroke="#CAD0EE" stroke-width="1.5"/>
<circle cx="103.577" cy="140.858" r="11.3273" transform="rotate(31.0042 103.577 140.858)" stroke="#CAD0EE" stroke-width="1.5"/>
<path d="M1643 739.541L1901.61 842.444L1980.66 643.783L1886.03 606.131L1843.46 713.126C1836 731.877 1823.19 748.024 1806.63 759.56L1776.44 780.589L1769.34 745.248C1765.31 725.187 1767.34 704.379 1775.19 685.479L1819.15 579.518L1722.05 540.88L1643 739.541Z" stroke="#CAD0EE" stroke-width="1.5"/>
<path d="M1700.56 594.881L1713.94 600.203L1734.77 619.968L1774.87 624.45L1794.7 638.078" stroke="#CAD0EE" stroke-width="1.5"/>
<path d="M1864.54 660.131L1877.92 665.454L1898.75 685.219L1938.86 689.701L1957.2 702.738" stroke="#CAD0EE" stroke-width="1.5"/>
<path d="M1665.87 682.073L1679.24 687.396L1700.07 707.161L1740.18 711.643L1767.45 733.97" stroke="#CAD0EE" stroke-width="1.5"/>
<path d="M1822.42 744.367L1843.23 752.647L1864.05 772.411L1904.16 776.894L1921.03 795.081" stroke="#CAD0EE" stroke-width="1.5"/>
<path d="M1681.44 642.936L1736.45 620.064" stroke="#CAD0EE" stroke-width="1.5"/>
<path d="M1845.42 708.186L1900.43 685.315" stroke="#CAD0EE" stroke-width="1.5"/>
<path d="M1699.77 706.468L1780.6 672.065" stroke="#CAD0EE" stroke-width="1.5"/>
<path d="M1863.76 771.719L1944.59 737.315" stroke="#CAD0EE" stroke-width="1.5"/>
<path d="M1669.83 683.651L1788.85 634.029" stroke="#CAD0EE" stroke-width="1.5"/>
<path d="M1833.81 748.901L1952.83 699.28" stroke="#CAD0EE" stroke-width="1.5"/>
<path d="M1856.59 517.752L1900.77 535.333L1833.7 703.898C1826.24 722.644 1813.6 738.878 1797.25 750.703L1785.56 759.159L1783.06 744.377C1779.81 725.178 1781.9 705.456 1789.1 687.364L1856.59 517.752Z" stroke="#CAD0EE" stroke-width="1.5"/>
<circle cx="1742.21" cy="572.429" r="6.7147" transform="rotate(21.6983 1742.21 572.429)" stroke="#CAD0EE" stroke-width="1.5"/>
<circle cx="1906.19" cy="637.679" r="6.7147" transform="rotate(21.6983 1906.19 637.679)" stroke="#CAD0EE" stroke-width="1.5"/>
<circle cx="1765.99" cy="581.892" r="6.7147" transform="rotate(21.6983 1765.99 581.892)" stroke="#CAD0EE" stroke-width="1.5"/>
<circle cx="1788.97" cy="587.593" r="6.7147" transform="rotate(21.6983 1788.97 587.593)" stroke="#CAD0EE" stroke-width="1.5"/>
<circle cx="1784.05" cy="608.592" r="6.7147" transform="rotate(21.6983 1784.05 608.592)" stroke="#CAD0EE" stroke-width="1.5"/>
<circle cx="1757.71" cy="602.698" r="6.7147" transform="rotate(21.6983 1757.71 602.698)" stroke="#CAD0EE" stroke-width="1.5"/>
<circle cx="1921.69" cy="667.949" r="6.7147" transform="rotate(21.6983 1921.69 667.949)" stroke="#CAD0EE" stroke-width="1.5"/>
<circle cx="1732.94" cy="592.842" r="5.64832" transform="rotate(21.6983 1732.94 592.842)" stroke="#CAD0EE" stroke-width="1.5"/>
<circle cx="1896.92" cy="658.093" r="5.64832" transform="rotate(21.6983 1896.92 658.093)" stroke="#CAD0EE" stroke-width="1.5"/>
<line x1="1667.89" y1="713.057" x2="1700.58" y2="726.068" stroke="#CAD0EE" stroke-width="1.5"/>
<line x1="1815.52" y1="771.802" x2="1844.25" y2="783.236" stroke="#CAD0EE" stroke-width="1.5"/>
<line x1="1716.82" y1="725.642" x2="1749.52" y2="738.653" stroke="#CAD0EE" stroke-width="1.5"/>
<line x1="1858.51" y1="782.022" x2="1887.24" y2="793.456" stroke="#CAD0EE" stroke-width="1.5"/>
<line x1="1675.84" y1="733.439" x2="1708.54" y2="746.45" stroke="#CAD0EE" stroke-width="1.5"/>
<line x1="1821.49" y1="791.396" x2="1850.23" y2="802.83" stroke="#CAD0EE" stroke-width="1.5"/>
<line x1="1726.37" y1="753.546" x2="1759.07" y2="766.557" stroke="#CAD0EE" stroke-width="1.5"/>
<line x1="1866.08" y1="809.137" x2="1894.82" y2="820.571" stroke="#CAD0EE" stroke-width="1.5"/>
</svg>
