<svg width="1635" height="629" viewBox="0 0 1635 629" fill="none" xmlns="http://www.w3.org/2000/svg">
<rect x="45.3254" y="119.279" width="205.571" height="181.679" transform="rotate(-14.0216 45.3254 119.279)" stroke="#CAD0EE" stroke-width="1.5"/>
<rect x="85.9055" y="51.6817" width="94.0714" height="137.875" transform="rotate(-14.0216 85.9055 51.6817)" fill="white" stroke="#CAD0EE" stroke-width="1.5"/>
<rect x="143.37" y="281.792" width="94.0714" height="71.93" transform="rotate(-14.0216 143.37 281.792)" fill="white" stroke="#CAD0EE" stroke-width="1.5"/>
<circle cx="147.76" cy="105.238" r="11.1964" transform="rotate(-14.0216 147.76 105.238)" stroke="#CAD0EE" stroke-width="1.5"/>
<line x1="207.343" y1="340.729" x2="271.021" y2="595.719" stroke="#CAD0EE" stroke-width="1.5"/>
<line x1="222.614" y1="336.536" x2="429.242" y2="555.828" stroke="#CAD0EE" stroke-width="1.5"/>
<line x1="190.936" y1="341.038" x2="139.674" y2="628.837" stroke="#CAD0EE" stroke-width="1.5"/>
<path d="M1386.99 168.551L1364.93 174.967C1355.22 177.791 1346.73 183.771 1340.8 191.962L1319.93 220.776C1317.33 224.37 1312.3 225.174 1308.71 222.571V222.571C1305.11 219.968 1304.31 214.943 1306.91 211.349L1328.82 181.097C1334.12 173.783 1341.39 168.137 1349.79 164.826L1370.55 156.643" stroke="#CAD0EE" stroke-width="1.5"/>
<path d="M1507.77 257.056L1508.56 280.02C1508.9 290.127 1505.87 300.061 1499.94 308.251L1479.07 337.065C1476.47 340.66 1477.27 345.685 1480.87 348.288V348.288C1484.46 350.891 1489.49 350.087 1492.09 346.492L1514 316.24C1519.29 308.927 1522.39 300.251 1522.91 291.236L1524.21 268.964" stroke="#CAD0EE" stroke-width="1.5"/>
<rect x="1389.38" y="69.8961" width="262.431" height="81.4014" transform="rotate(35.9105 1389.38 69.8961)" fill="white" stroke="#CAD0EE" stroke-width="1.5"/>
<rect x="1434.93" y="203.148" width="32.3373" height="22.1861" transform="rotate(35.9105 1434.93 203.148)" fill="white" stroke="#CAD0EE" stroke-width="1.5"/>
<rect x="1397.37" y="203.1" width="93.2444" height="56.0234" transform="rotate(35.9105 1397.37 203.1)" fill="white" stroke="#CAD0EE" stroke-width="1.5"/>
<rect x="1440.37" y="62.9514" width="39.1048" height="35.721" transform="rotate(35.9105 1440.37 62.9514)" fill="white" stroke="#CAD0EE" stroke-width="1.5"/>
<rect x="1459.51" y="53.8324" width="18.8024" height="18.8024" transform="rotate(35.9105 1459.51 53.8324)" fill="white" stroke="#CAD0EE" stroke-width="1.5"/>
<line x1="1434.12" y1="35.686" x2="1499.89" y2="83.3171" stroke="#CAD0EE" stroke-width="1.5"/>
<rect x="1560.95" y="150.275" width="39.1048" height="35.721" transform="rotate(35.9105 1560.95 150.275)" fill="white" stroke="#CAD0EE" stroke-width="1.5"/>
<rect x="1580.09" y="141.156" width="18.8024" height="18.8024" transform="rotate(35.9105 1580.09 141.156)" fill="white" stroke="#CAD0EE" stroke-width="1.5"/>
<line x1="1554.71" y1="123.01" x2="1620.48" y2="170.641" stroke="#CAD0EE" stroke-width="1.5"/>
<path d="M1425.44 256.97C1423.21 260.04 1418.92 260.726 1415.85 258.503C1412.78 256.28 1412.1 251.989 1414.32 248.919C1416.54 245.848 1420.83 245.162 1423.9 247.385C1426.97 249.608 1427.66 253.899 1425.44 256.97Z" stroke="#CAD0EE" stroke-width="1.5"/>
</svg>
