<svg width="1868" height="1192" viewBox="0 0 1868 1192" fill="none" xmlns="http://www.w3.org/2000/svg">
<path d="M103.642 195.878L101.693 215.715C100.835 224.446 102.911 233.213 107.594 240.632L124.068 266.728C126.123 269.984 125.15 274.29 121.894 276.345V276.345C118.638 278.4 114.333 277.427 112.278 274.171L94.9817 246.772C90.8003 240.148 88.6011 232.466 88.6437 224.633L88.749 205.28" stroke="#CAD0EE" stroke-width="1.5"/>
<path d="M213.87 127.164L232.617 133.936C240.867 136.917 247.889 142.562 252.572 149.981L269.046 176.078C271.101 179.333 275.407 180.307 278.662 178.251V178.251C281.918 176.196 282.891 171.891 280.836 168.635L263.54 141.236C259.359 134.612 253.37 129.323 246.28 125.992L228.763 117.762" stroke="#CAD0EE" stroke-width="1.5"/>
<rect x="25.1049" y="162.165" width="227.457" height="70.4159" transform="rotate(-32.2625 25.1049 162.165)" fill="white" stroke="#CAD0EE" stroke-width="1.5"/>
<rect x="147.103" y="168.463" width="27.8534" height="19.0474" transform="rotate(-32.2625 147.103 168.463)" fill="white" stroke="#CAD0EE" stroke-width="1.5"/>
<rect x="134.949" y="198.698" width="80.6896" height="48.4008" transform="rotate(-32.2625 134.949 198.698)" fill="white" stroke="#CAD0EE" stroke-width="1.5"/>
<rect x="35.9545" y="118.866" width="33.7241" height="30.7888" transform="rotate(-32.2625 35.9545 118.866)" fill="white" stroke="#CAD0EE" stroke-width="1.5"/>
<rect x="34.7846" y="100.514" width="16.1121" height="16.112" transform="rotate(-32.2625 34.7846 100.514)" fill="white" stroke="#CAD0EE" stroke-width="1.5"/>
<line x1="11.793" y1="114.989" x2="71.3648" y2="77.3838" stroke="#CAD0EE" stroke-width="1.5"/>
<rect x="145.171" y="49.924" width="33.7241" height="30.7888" transform="rotate(-32.2625 145.171 49.924)" fill="white" stroke="#CAD0EE" stroke-width="1.5"/>
<rect x="144.001" y="31.5717" width="16.1121" height="16.1121" transform="rotate(-32.2625 144.001 31.5717)" fill="white" stroke="#CAD0EE" stroke-width="1.5"/>
<line x1="121.01" y1="46.0465" x2="180.582" y2="8.44125" stroke="#CAD0EE" stroke-width="1.5"/>
<path d="M187.163 193.489C188.889 196.223 188.071 199.839 185.337 201.565C182.603 203.291 178.987 202.474 177.261 199.74C175.535 197.005 176.353 193.39 179.087 191.664C181.821 189.938 185.437 190.755 187.163 193.489Z" stroke="#CAD0EE" stroke-width="1.5"/>
<line x1="1577.47" y1="983.926" x2="1791.09" y2="1067.75" stroke="#CAD0EE" stroke-width="1.5"/>
<path d="M1741.56 838.941C1744.33 831.875 1752.31 828.395 1759.37 831.168C1766.44 833.94 1769.92 841.915 1767.14 848.981L1748.01 897.751L1722.42 887.711L1741.56 838.941Z" fill="white" stroke="#CAD0EE" stroke-width="1.5"/>
<path d="M1698.11 934.501L1713.25 947.927L1561.94 1117.23L1567.34 1081.97L1698.11 934.501Z" fill="white" stroke="#CAD0EE" stroke-width="1.5"/>
<path d="M1736.89 949.719L1716.66 949.265L1712.45 1176.29L1732.47 1146.77L1736.89 949.719Z" fill="white" stroke="#CAD0EE" stroke-width="1.5"/>
<circle cx="1725.92" cy="919.729" r="39.1052" transform="rotate(21.4251 1725.92 919.729)" fill="white" stroke="#CAD0EE" stroke-width="1.5"/>
<circle cx="1727.48" cy="919.046" r="11.3273" transform="rotate(21.4251 1727.48 919.046)" stroke="#CAD0EE" stroke-width="1.5"/>
</svg>
