<svg width="1918" height="454" viewBox="0 0 1918 454" fill="none" xmlns="http://www.w3.org/2000/svg">
<rect x="29.9181" y="70.028" width="149.443" height="132.027" transform="rotate(-8.64147 29.9181 70.028)" stroke="#CAD0EE" stroke-width="1.5"/>
<rect x="63.9899" y="23.744" width="68.1661" height="100.096" transform="rotate(-8.64147 63.9899 23.744)" fill="white" stroke="#CAD0EE" stroke-width="1.5"/>
<rect x="89.9665" y="194.67" width="68.1661" height="52.0263" transform="rotate(-8.64147 89.9665 194.67)" fill="white" stroke="#CAD0EE" stroke-width="1.5"/>
<circle cx="104.988" cy="66.6687" r="7.95827" transform="rotate(-8.64147 104.988 66.6687)" stroke="#CAD0EE" stroke-width="1.5"/>
<line x1="132.334" y1="241.614" x2="161.119" y2="431.021" stroke="#CAD0EE" stroke-width="1.5"/>
<line x1="143.663" y1="239.521" x2="278.631" y2="412.79" stroke="#CAD0EE" stroke-width="1.5"/>
<line x1="120.4" y1="240.801" x2="63.5275" y2="446.163" stroke="#CAD0EE" stroke-width="1.5"/>
<path d="M1877.21 408.765C1875.98 414.605 1871.67 419.597 1864.74 423.592C1857.81 427.587 1848.33 430.537 1836.96 432.309C1814.21 435.853 1784.01 434.66 1751.77 427.863C1719.54 421.065 1691.43 409.963 1672.05 397.535C1662.36 391.32 1654.88 384.795 1650.15 378.342C1645.43 371.889 1643.5 365.582 1644.73 359.741C1645.96 353.901 1650.27 348.909 1657.2 344.914C1664.13 340.92 1673.61 337.969 1684.98 336.197C1707.73 332.653 1737.93 333.846 1770.17 340.643C1802.4 347.441 1830.51 358.543 1849.89 370.971C1859.58 377.186 1867.06 383.711 1871.79 390.164C1876.52 396.617 1878.44 402.924 1877.21 408.765Z" stroke="#CAD0EE" stroke-width="1.5"/>
<path d="M1873.82 257.772L1765.63 377.324L1714.92 224.266C1692.11 155.425 1752.57 87.7879 1823.52 102.751C1894.48 117.714 1922.48 204.002 1873.82 257.772Z" fill="#FEFEFE" stroke="#CAD0EE" stroke-width="1.5"/>
<path d="M1824.1 198.627C1822.13 207.991 1812.98 213.984 1803.68 212.022C1794.37 210.061 1788.43 200.885 1790.4 191.52C1792.38 182.156 1801.52 176.163 1810.83 178.125C1820.13 180.086 1826.08 189.262 1824.1 198.627Z" stroke="#CAD0EE" stroke-width="1.5"/>
</svg>
