<svg width="260" height="379" viewBox="0 0 260 379" fill="none" xmlns="http://www.w3.org/2000/svg">
<line x1="-6.91679" y1="197.347" x2="208.559" y2="253.589" stroke="#CAD0EE" stroke-width="1.5"/>
<path d="M134.568 38.8126C136.425 31.6973 143.698 27.4348 150.814 29.292C157.929 31.1491 162.191 38.4227 160.334 45.538L147.499 94.712L121.733 87.9866L134.568 38.8126Z" fill="white" stroke="#CAD0EE" stroke-width="1.5"/>
<path d="M103.657 135.916L119.753 147.089L-6.55626 327.536L-5.40241 293.022L103.657 135.916Z" fill="white" stroke="#CAD0EE" stroke-width="1.5"/>
<path d="M142.754 146.12L123.25 148.001L145.257 367.16L161.118 336.485L142.754 146.12Z" fill="white" stroke="#CAD0EE" stroke-width="1.5"/>
<path d="M165.452 128.034C160.161 148.302 139.442 160.445 119.174 155.154C98.9054 149.864 86.7633 129.145 92.0536 108.876C97.3439 88.608 118.063 76.4659 138.332 81.7562C158.6 87.0465 170.742 107.766 165.452 128.034Z" fill="white" stroke="#CAD0EE" stroke-width="1.5"/>
<path d="M140.798 120.388C139.268 126.251 133.275 129.763 127.412 128.233C121.55 126.703 118.038 120.71 119.568 114.847C121.098 108.984 127.091 105.472 132.954 107.002C138.816 108.533 142.328 114.526 140.798 120.388Z" stroke="#CAD0EE" stroke-width="1.5"/>
</svg>
