<svg width="353" height="338" viewBox="0 0 353 338" fill="none" xmlns="http://www.w3.org/2000/svg">
<path d="M96.5326 151.63L74.7066 160.966C65.1005 165.075 57.1381 172.269 52.0782 181.409L34.2779 213.567C32.0572 217.578 27.0047 219.03 22.9928 216.81V216.81C18.981 214.589 17.529 209.536 19.7497 205.525L38.4383 171.763C42.9564 163.601 49.7151 156.902 57.9168 152.456L78.1812 141.472" stroke="#CAD0EE" stroke-width="1.5"/>
<path d="M231.451 227.312L235.127 250.764C236.745 261.086 234.877 271.653 229.817 280.794L212.016 312.951C209.796 316.963 211.248 322.015 215.26 324.236V324.236C219.271 326.457 224.324 325.005 226.545 320.993L245.233 287.231C249.751 279.069 251.84 269.785 251.253 260.474L249.803 237.47" stroke="#CAD0EE" stroke-width="1.5"/>
<rect x="86.6515" y="50.1203" width="271.179" height="84.1492" transform="rotate(28.9664 86.6515 50.1203)" fill="white" stroke="#CAD0EE" stroke-width="1.5"/>
<rect x="150.01" y="181.09" width="33.4589" height="22.9712" transform="rotate(28.9664 150.01 181.09)" fill="white" stroke="#CAD0EE" stroke-width="1.5"/>
<rect x="111.478" y="185.733" width="96.3848" height="57.9301" transform="rotate(28.9664 111.478 185.733)" fill="white" stroke="#CAD0EE" stroke-width="1.5"/>
<rect x="138.073" y="36.6295" width="40.4506" height="36.9547" transform="rotate(28.9664 138.073 36.6295)" fill="white" stroke="#CAD0EE" stroke-width="1.5"/>
<rect x="156.56" y="24.887" width="19.4753" height="19.4753" transform="rotate(28.9664 156.56 24.887)" fill="white" stroke="#CAD0EE" stroke-width="1.5"/>
<line x1="128.257" y1="9.50294" x2="201.662" y2="50.1361" stroke="#CAD0EE" stroke-width="1.5"/>
<rect x="272.649" y="111.124" width="40.4506" height="36.9547" transform="rotate(28.9664 272.649 111.124)" fill="white" stroke="#CAD0EE" stroke-width="1.5"/>
<rect x="291.136" y="99.3813" width="19.4753" height="19.4753" transform="rotate(28.9664 291.136 99.3813)" fill="white" stroke="#CAD0EE" stroke-width="1.5"/>
<line x1="262.833" y1="83.9973" x2="336.239" y2="124.63" stroke="#CAD0EE" stroke-width="1.5"/>
<circle cx="140.802" cy="234.073" r="7.11575" transform="rotate(28.9664 140.802 234.073)" stroke="#CAD0EE" stroke-width="1.5"/>
</svg>
