<svg width="1729" height="652" viewBox="0 0 1729 652" fill="none" xmlns="http://www.w3.org/2000/svg">
<rect x="38.996" y="133.386" width="205.571" height="181.679" transform="rotate(-6.31963 38.996 133.386)" stroke="#CAD0EE" stroke-width="1.5"/>
<rect x="88.2694" y="71.8374" width="94.0714" height="137.875" transform="rotate(-6.31963 88.2694 71.8374)" fill="white" stroke="#CAD0EE" stroke-width="1.5"/>
<rect x="114.379" y="307.573" width="94.0714" height="71.93" transform="rotate(-6.31963 114.379 307.573)" fill="white" stroke="#CAD0EE" stroke-width="1.5"/>
<circle cx="142.388" cy="133.2" r="11.1964" transform="rotate(-6.31963 142.388 133.2)" stroke="#CAD0EE" stroke-width="1.5"/>
<line x1="169.874" y1="374.552" x2="198.804" y2="635.776" stroke="#CAD0EE" stroke-width="1.5"/>
<line x1="185.567" y1="372.444" x2="360.941" y2="617.45" stroke="#CAD0EE" stroke-width="1.5"/>
<line x1="153.57" y1="372.659" x2="64.1996" y2="650.992" stroke="#CAD0EE" stroke-width="1.5"/>
<path d="M1480.99 143.551L1458.93 149.967C1449.22 152.791 1440.73 158.771 1434.79 166.962L1413.93 195.776C1411.32 199.37 1406.3 200.174 1402.71 197.571V197.571C1399.11 194.968 1398.31 189.943 1400.91 186.349L1422.82 156.097C1428.11 148.783 1435.39 143.137 1443.79 139.826L1464.55 131.643" stroke="#CAD0EE" stroke-width="1.5"/>
<path d="M1601.77 232.056L1602.55 255.02C1602.9 265.127 1599.87 275.061 1593.94 283.251L1573.07 312.065C1570.47 315.66 1571.27 320.685 1574.87 323.288V323.288C1578.46 325.891 1583.49 325.087 1586.09 321.492L1608 291.24C1613.29 283.927 1616.39 275.251 1616.91 266.236L1618.21 243.964" stroke="#CAD0EE" stroke-width="1.5"/>
<rect x="1483.38" y="44.8961" width="262.431" height="81.4014" transform="rotate(35.9105 1483.38 44.8961)" fill="white" stroke="#CAD0EE" stroke-width="1.5"/>
<rect x="1528.93" y="178.148" width="32.3373" height="22.1861" transform="rotate(35.9105 1528.93 178.148)" fill="white" stroke="#CAD0EE" stroke-width="1.5"/>
<rect x="1491.37" y="178.1" width="93.2444" height="56.0234" transform="rotate(35.9105 1491.37 178.1)" fill="white" stroke="#CAD0EE" stroke-width="1.5"/>
<rect x="1534.37" y="37.9514" width="39.1048" height="35.721" transform="rotate(35.9105 1534.37 37.9514)" fill="white" stroke="#CAD0EE" stroke-width="1.5"/>
<rect x="1553.5" y="28.8323" width="18.8024" height="18.8024" transform="rotate(35.9105 1553.5 28.8323)" fill="white" stroke="#CAD0EE" stroke-width="1.5"/>
<line x1="1528.12" y1="10.6859" x2="1593.89" y2="58.317" stroke="#CAD0EE" stroke-width="1.5"/>
<rect x="1654.95" y="125.275" width="39.1048" height="35.721" transform="rotate(35.9105 1654.95 125.275)" fill="white" stroke="#CAD0EE" stroke-width="1.5"/>
<rect x="1674.09" y="116.156" width="18.8024" height="18.8024" transform="rotate(35.9105 1674.09 116.156)" fill="white" stroke="#CAD0EE" stroke-width="1.5"/>
<line x1="1648.71" y1="98.0099" x2="1714.48" y2="145.641" stroke="#CAD0EE" stroke-width="1.5"/>
<path d="M1519.44 231.97C1517.22 235.04 1512.93 235.726 1509.86 233.503C1506.79 231.28 1506.1 226.989 1508.32 223.918C1510.54 220.848 1514.84 220.162 1517.91 222.385C1520.98 224.608 1521.66 228.899 1519.44 231.97Z" stroke="#CAD0EE" stroke-width="1.5"/>
</svg>
