<svg width="1908" height="1156" viewBox="0 0 1908 1156" fill="none" xmlns="http://www.w3.org/2000/svg">
<path d="M1650.06 985.493L1629.1 997.94C1619.87 1003.42 1612.74 1011.82 1608.82 1021.8L1595.03 1056.94C1593.31 1061.33 1588.36 1063.49 1583.98 1061.77V1061.77C1579.59 1060.05 1577.43 1055.1 1579.15 1050.71L1593.63 1013.82C1597.13 1004.9 1603.11 997.17 1610.86 991.538L1630.01 977.624" stroke="#CAD0EE" stroke-width="1.5"/>
<path d="M1797.63 1044.36L1804.54 1067.74C1807.57 1078.04 1807.1 1089.05 1803.18 1099.03L1789.39 1134.17C1787.67 1138.56 1789.83 1143.51 1794.21 1145.23V1145.23C1798.59 1146.95 1803.54 1144.79 1805.26 1140.4L1819.74 1103.51C1823.24 1094.59 1824.12 1084.86 1822.26 1075.46L1817.69 1052.23" stroke="#CAD0EE" stroke-width="1.5"/>
<rect x="1626.31" y="883.447" width="278.548" height="86.4637" transform="rotate(21.4251 1626.31 883.447)" fill="white" stroke="#CAD0EE" stroke-width="1.5"/>
<rect x="1708.47" y="1008.25" width="34.4036" height="23.6325" transform="rotate(21.4251 1708.47 1008.25)" fill="white" stroke="#CAD0EE" stroke-width="1.5"/>
<rect x="1669.87" y="1018.17" width="99.03" height="59.5361" transform="rotate(21.4251 1669.87 1018.17)" fill="white" stroke="#CAD0EE" stroke-width="1.5"/>
<rect x="1676.85" y="862.781" width="41.5843" height="37.9939" transform="rotate(21.4251 1676.85 862.781)" fill="white" stroke="#CAD0EE" stroke-width="1.5"/>
<rect x="1694.09" y="848.333" width="20.0421" height="20.0421" transform="rotate(21.4251 1694.09 848.333)" fill="white" stroke="#CAD0EE" stroke-width="1.5"/>
<line x1="1663.2" y1="836.53" x2="1743.41" y2="868.006" stroke="#CAD0EE" stroke-width="1.5"/>
<rect x="1823.9" y="920.487" width="41.5843" height="37.9939" transform="rotate(21.4251 1823.9 920.487)" fill="white" stroke="#CAD0EE" stroke-width="1.5"/>
<rect x="1841.14" y="906.04" width="20.0421" height="20.0421" transform="rotate(21.4251 1841.14 906.04)" fill="white" stroke="#CAD0EE" stroke-width="1.5"/>
<line x1="1810.26" y1="894.237" x2="1890.47" y2="925.713" stroke="#CAD0EE" stroke-width="1.5"/>
<circle cx="1706.25" cy="1063.46" r="7.3283" transform="rotate(21.4251 1706.25 1063.46)" stroke="#CAD0EE" stroke-width="1.5"/>
<line x1="-80.6196" y1="194.926" x2="132.992" y2="278.748" stroke="#CAD0EE" stroke-width="1.5"/>
<path d="M109.05 59.9809L89.9126 108.751L64.3263 98.7107L83.4637 49.9408C86.2362 42.8753 94.2115 39.3952 101.277 42.1677C108.342 44.9402 111.822 52.9154 109.05 59.9809Z" fill="white" stroke="#CAD0EE" stroke-width="1.5"/>
<path d="M40.0147 145.501L55.1558 158.927L-96.1525 328.228L-90.7504 292.972L40.0147 145.501Z" fill="white" stroke="#CAD0EE" stroke-width="1.5"/>
<path d="M78.7988 160.719L58.5676 160.265L54.3578 387.288L74.3742 357.767L78.7988 160.719Z" fill="white" stroke="#CAD0EE" stroke-width="1.5"/>
<circle cx="67.8238" cy="130.729" r="39.1052" transform="rotate(21.4251 67.8238 130.729)" fill="white" stroke="#CAD0EE" stroke-width="1.5"/>
<circle cx="69.3887" cy="130.046" r="11.3273" transform="rotate(21.4251 69.3887 130.046)" stroke="#CAD0EE" stroke-width="1.5"/>
</svg>
