<svg width="1841" height="909" viewBox="0 0 1841 909" fill="none" xmlns="http://www.w3.org/2000/svg">
<path d="M1508.39 157.283L1487.43 169.73C1478.2 175.208 1471.06 183.605 1467.14 193.594L1453.35 228.734C1451.63 233.118 1446.68 235.277 1442.3 233.557V233.557C1437.92 231.837 1435.76 226.888 1437.48 222.504L1451.95 185.611C1455.45 176.692 1461.43 168.96 1469.18 163.328L1488.34 149.414" stroke="#CAD0EE" stroke-width="1.5"/>
<path d="M1655.96 216.152L1662.86 239.535C1665.9 249.826 1665.42 260.836 1661.5 270.825L1647.71 305.964C1645.99 310.348 1648.15 315.297 1652.53 317.017V317.017C1656.92 318.737 1661.87 316.578 1663.59 312.194L1678.06 275.301C1681.56 266.382 1682.44 256.647 1680.59 247.247L1676.01 224.021" stroke="#CAD0EE" stroke-width="1.5"/>
<rect x="1484.64" y="55.2372" width="278.548" height="86.4637" transform="rotate(21.4251 1484.64 55.2372)" fill="white" stroke="#CAD0EE" stroke-width="1.5"/>
<rect x="1566.8" y="180.043" width="34.4036" height="23.6325" transform="rotate(21.4251 1566.8 180.043)" fill="white" stroke="#CAD0EE" stroke-width="1.5"/>
<rect x="1528.19" y="189.964" width="99.03" height="59.5361" transform="rotate(21.4251 1528.19 189.964)" fill="white" stroke="#CAD0EE" stroke-width="1.5"/>
<rect x="1535.17" y="34.5708" width="41.5843" height="37.9939" transform="rotate(21.4251 1535.17 34.5708)" fill="white" stroke="#CAD0EE" stroke-width="1.5"/>
<rect x="1552.41" y="20.1234" width="20.0421" height="20.0421" transform="rotate(21.4251 1552.41 20.1234)" fill="white" stroke="#CAD0EE" stroke-width="1.5"/>
<line x1="1521.52" y1="8.32038" x2="1601.74" y2="39.7965" stroke="#CAD0EE" stroke-width="1.5"/>
<rect x="1682.23" y="92.2774" width="41.5843" height="37.9939" transform="rotate(21.4251 1682.23 92.2774)" fill="white" stroke="#CAD0EE" stroke-width="1.5"/>
<rect x="1699.47" y="77.8299" width="20.0421" height="20.0421" transform="rotate(21.4251 1699.47 77.8299)" fill="white" stroke="#CAD0EE" stroke-width="1.5"/>
<line x1="1668.58" y1="66.0269" x2="1748.8" y2="97.503" stroke="#CAD0EE" stroke-width="1.5"/>
<circle cx="1564.57" cy="235.254" r="7.3283" transform="rotate(21.4251 1564.57 235.254)" stroke="#CAD0EE" stroke-width="1.5"/>
<line x1="85.9772" y1="787.151" x2="295.211" y2="692.931" stroke="#CAD0EE" stroke-width="1.5"/>
<path d="M96.9353 568.463C93.8189 561.543 96.9029 553.406 103.824 550.29C110.744 547.173 118.881 550.257 121.997 557.178L143.508 604.948L118.447 616.234L96.9353 568.463Z" fill="white" stroke="#CAD0EE" stroke-width="1.5"/>
<path d="M134.926 666.322L155.11 664.874L170.473 891.416L149.03 862.914L134.926 666.322Z" fill="white" stroke="#CAD0EE" stroke-width="1.5"/>
<path d="M172.914 649.215L158.451 663.369L317.898 825.028L310.77 790.081L172.914 649.215Z" fill="white" stroke="#CAD0EE" stroke-width="1.5"/>
<circle cx="143.792" cy="636.107" r="39.1052" transform="rotate(-24.2423 143.792 636.107)" fill="white" stroke="#CAD0EE" stroke-width="1.5"/>
<circle cx="144.398" cy="634.51" r="11.3273" transform="rotate(-24.2423 144.398 634.51)" stroke="#CAD0EE" stroke-width="1.5"/>
<path d="M1480 836.209L1779.19 894.575L1824.03 664.742L1714.55 643.385L1689.84 770.06C1685.98 789.869 1676.38 808.106 1662.24 822.506L1631.94 853.356L1616.02 813.987C1608.35 795.018 1606.5 774.192 1610.71 754.168L1637.18 628.29L1524.84 606.375L1480 836.209Z" stroke="#CAD0EE" stroke-width="1.5"/>
<path d="M1512.65 668.849L1528.12 671.868L1554.55 688.922L1598.62 685.621L1622.73 696.272" stroke="#CAD0EE" stroke-width="1.5"/>
<path d="M1702.37 705.859L1717.84 708.878L1744.26 725.932L1788.34 722.631L1810.72 732.947" stroke="#CAD0EE" stroke-width="1.5"/>
<path d="M1492.97 769.723L1508.45 772.742L1534.87 789.796L1578.95 786.495L1612.82 805.003" stroke="#CAD0EE" stroke-width="1.5"/>
<path d="M1674.09 805.057L1698.16 809.753L1724.58 826.807L1768.66 823.506L1790.5 839.665" stroke="#CAD0EE" stroke-width="1.5"/>
<path d="M1501.8 724.444L1556.38 688.684" stroke="#CAD0EE" stroke-width="1.5"/>
<path d="M1691.52 761.455L1746.1 725.694" stroke="#CAD0EE" stroke-width="1.5"/>
<path d="M1534.41 789.111L1614.44 735.708" stroke="#CAD0EE" stroke-width="1.5"/>
<path d="M1724.12 826.121L1804.15 772.718" stroke="#CAD0EE" stroke-width="1.5"/>
<path d="M1497.56 770.618L1615.61 693.099" stroke="#CAD0EE" stroke-width="1.5"/>
<path d="M1687.27 807.628L1805.33 730.109" stroke="#CAD0EE" stroke-width="1.5"/>
<path d="M1664.9 554.143L1716.16 564.143L1677.53 762.135C1673.67 781.937 1664.25 800.23 1650.37 814.875L1637.39 828.577L1630.67 810.389C1623.93 792.122 1622.33 772.354 1626.06 753.242L1664.9 554.143Z" stroke="#CAD0EE" stroke-width="1.5"/>
<path d="M1560.21 637.67C1559.43 641.695 1555.53 644.321 1551.5 643.536C1547.48 642.751 1544.85 638.851 1545.63 634.826C1546.42 630.801 1550.32 628.175 1554.34 628.96C1558.37 629.745 1561 633.645 1560.21 637.67Z" stroke="#CAD0EE" stroke-width="1.5"/>
<path d="M1749.93 674.68C1749.14 678.705 1745.24 681.331 1741.22 680.546C1737.19 679.761 1734.57 675.861 1735.35 671.836C1736.14 667.811 1740.04 665.185 1744.06 665.97C1748.09 666.755 1750.71 670.655 1749.93 674.68Z" stroke="#CAD0EE" stroke-width="1.5"/>
<path d="M1587.72 643.037C1586.94 647.062 1583.04 649.688 1579.01 648.903C1574.99 648.118 1572.36 644.218 1573.15 640.193C1573.93 636.168 1577.83 633.542 1581.86 634.327C1585.88 635.112 1588.51 639.012 1587.72 643.037Z" stroke="#CAD0EE" stroke-width="1.5"/>
<path d="M1777.44 680.047C1776.66 684.072 1772.76 686.698 1768.73 685.913C1764.71 685.128 1762.08 681.228 1762.86 677.203C1763.65 673.178 1767.55 670.552 1771.57 671.337C1775.6 672.122 1778.23 676.022 1777.44 680.047Z" stroke="#CAD0EE" stroke-width="1.5"/>
<path d="M1613.61 644.518C1612.83 648.543 1608.93 651.169 1604.9 650.384C1600.88 649.599 1598.25 645.699 1599.04 641.674C1599.82 637.649 1603.72 635.023 1607.75 635.808C1611.77 636.593 1614.4 640.493 1613.61 644.518Z" stroke="#CAD0EE" stroke-width="1.5"/>
<path d="M1803.33 681.528C1802.54 685.553 1798.65 688.179 1794.62 687.394C1790.6 686.609 1787.97 682.709 1788.75 678.684C1789.54 674.659 1793.44 672.033 1797.46 672.818C1801.49 673.603 1804.12 677.503 1803.33 681.528Z" stroke="#CAD0EE" stroke-width="1.5"/>
<path d="M1612.58 668.115C1611.79 672.14 1607.89 674.766 1603.87 673.981C1599.84 673.196 1597.22 669.296 1598 665.271C1598.79 661.246 1602.69 658.62 1606.71 659.405C1610.74 660.19 1613.36 664.09 1612.58 668.115Z" stroke="#CAD0EE" stroke-width="1.5"/>
<path d="M1802.3 705.125C1801.51 709.15 1797.61 711.776 1793.59 710.991C1789.56 710.206 1786.94 706.306 1787.72 702.281C1788.51 698.256 1792.41 695.63 1796.43 696.415C1800.46 697.2 1803.08 701.1 1802.3 705.125Z" stroke="#CAD0EE" stroke-width="1.5"/>
<path d="M1583.03 667.109C1582.24 671.134 1578.34 673.76 1574.32 672.975C1570.29 672.19 1567.66 668.29 1568.45 664.265C1569.24 660.24 1573.13 657.614 1577.16 658.399C1581.19 659.184 1583.81 663.084 1583.03 667.109Z" stroke="#CAD0EE" stroke-width="1.5"/>
<path d="M1772.74 704.119C1771.96 708.144 1768.06 710.771 1764.03 709.986C1760.01 709.2 1757.38 705.301 1758.17 701.276C1758.95 697.251 1762.85 694.624 1766.88 695.41C1770.9 696.195 1773.53 700.094 1772.74 704.119Z" stroke="#CAD0EE" stroke-width="1.5"/>
<path d="M1553.22 661.295C1552.56 664.687 1549.27 666.9 1545.88 666.238C1542.49 665.577 1540.28 662.29 1540.94 658.898C1541.6 655.506 1544.89 653.293 1548.28 653.955C1551.67 654.617 1553.88 657.903 1553.22 661.295Z" stroke="#CAD0EE" stroke-width="1.5"/>
<path d="M1742.94 698.305C1742.28 701.697 1738.99 703.91 1735.6 703.249C1732.21 702.587 1729.99 699.301 1730.66 695.909C1731.32 692.517 1734.6 690.304 1738 690.965C1741.39 691.627 1743.6 694.913 1742.94 698.305Z" stroke="#CAD0EE" stroke-width="1.5"/>
<line x1="1501.41" y1="802.733" x2="1539.23" y2="810.113" stroke="#CAD0EE" stroke-width="1.5"/>
<line x1="1672.21" y1="836.053" x2="1705.45" y2="842.538" stroke="#CAD0EE" stroke-width="1.5"/>
<line x1="1556.62" y1="806.366" x2="1594.45" y2="813.745" stroke="#CAD0EE" stroke-width="1.5"/>
<line x1="1720.55" y1="838.344" x2="1753.79" y2="844.829" stroke="#CAD0EE" stroke-width="1.5"/>
<line x1="1514.1" y1="823.058" x2="1551.93" y2="830.438" stroke="#CAD0EE" stroke-width="1.5"/>
<line x1="1682.61" y1="855.932" x2="1715.85" y2="862.417" stroke="#CAD0EE" stroke-width="1.5"/>
<line x1="1572.56" y1="834.463" x2="1610.39" y2="841.843" stroke="#CAD0EE" stroke-width="1.5"/>
<line x1="1734.19" y1="865.995" x2="1767.44" y2="872.48" stroke="#CAD0EE" stroke-width="1.5"/>
</svg>
