<svg width="181" height="181" viewBox="0 0 181 181" fill="none" xmlns="http://www.w3.org/2000/svg">
<circle cx="90.5" cy="90.5" r="90.5" fill="white"/>
<mask id="path-2-inside-1_302_2776" fill="white">
<path fill-rule="evenodd" clip-rule="evenodd" d="M89.5616 61.1416C89.3795 61.2367 86.9468 65.3286 81.9687 73.9127C77.94 80.8599 74.613 86.6595 74.5753 86.8009C74.4055 87.4388 74.7331 87.7203 77.3925 89.2228C77.4769 89.2705 76.9182 90.3439 75.8002 92.2817C73.9366 95.5118 73.8158 95.843 74.3336 96.3055C74.5945 96.5384 78.8239 99.0022 79.5772 99.36C79.9572 99.5404 80.0225 99.5422 80.3614 99.3807C80.6702 99.2333 81.0175 98.709 82.4751 96.1889C84.1338 93.3216 84.2315 93.1799 84.4654 93.3016C84.6008 93.3722 85.1806 93.7033 85.7538 94.0376C87.0232 94.778 87.3387 94.8577 87.7434 94.5407C87.9087 94.4111 89.4052 91.9528 91.0966 89.0321C93.7097 84.5198 94.184 83.7645 94.3786 83.8059C94.5037 83.8327 94.9111 83.937 95.2839 84.038C96.6225 84.4006 98.5148 84.2207 99.8025 83.6084L100.336 83.3547L101.224 84.0531C106.306 88.0494 108.55 94.8942 106.828 101.146C106.06 103.933 104.628 106.37 102.543 108.436L101.599 109.371H83.427C63.5572 109.371 64.5568 109.338 63.3909 110.019C62.7161 110.413 61.8743 111.264 61.5679 111.862C61.0605 112.853 61.0013 113.269 61 115.847C60.9993 117.197 61.0306 118.384 61.0694 118.485C61.2776 119.025 59.8367 119 90 119C120.163 119 118.722 119.025 118.931 118.485C118.969 118.384 119.001 117.197 119 115.847C118.999 113.269 118.939 112.853 118.432 111.862C118.126 111.264 117.284 110.413 116.609 110.019C115.785 109.538 114.915 109.371 113.234 109.371C112.403 109.371 111.722 109.354 111.722 109.333C111.722 109.313 112.096 108.561 112.553 107.662C115.04 102.768 115.753 97.3493 114.625 91.8991C113.874 88.266 112.042 84.4416 109.672 81.5594C108.323 79.9189 105.43 77.3607 103.906 76.4613C103.663 76.3179 103.533 76.0871 103.34 75.4591C103.035 74.4687 102.356 73.3922 101.546 72.6166L100.942 72.0394L101.777 70.6254C102.236 69.8477 102.643 69.0749 102.682 68.9081C102.841 68.2215 102.744 68.1536 96.3417 64.4818C93.0011 62.5658 90.1691 60.9991 90.0486 61C89.928 61.0009 89.7088 61.0646 89.5616 61.1416ZM95.5159 66.2396C98.2056 67.787 100.397 69.0903 100.386 69.136C100.375 69.1816 100.108 69.6562 99.7918 70.1905L99.2177 71.1622L98.6178 70.9954C98.2828 70.9023 97.516 70.8263 96.8807 70.8231C95.9315 70.8185 95.5929 70.8685 94.8335 71.1261C92.4321 71.9406 90.7726 73.8174 90.278 76.2778C89.8589 78.3628 90.519 80.5697 92.0172 82.0934C92.4826 82.5667 92.5282 82.6569 92.4182 82.8864C92.35 83.0288 91.0928 85.21 89.6246 87.7334C87.8639 90.7594 86.896 92.3166 86.7815 92.3073C86.6861 92.2995 84.4061 91.0288 81.7147 89.4833C77.0187 86.7867 76.8267 86.6634 76.9565 86.4278C77.0308 86.2926 80.0809 81.0275 83.7345 74.7274C87.8664 67.6025 90.4242 63.3018 90.5014 63.3495C90.5697 63.3917 92.8262 64.6923 95.5159 66.2396ZM98.3023 72.9175C99.5842 73.3035 100.67 74.2325 101.279 75.4646C101.638 76.1916 101.657 76.2931 101.657 77.4788C101.657 78.6433 101.633 78.7777 101.3 79.4776C99.7747 82.6853 95.7047 83.2858 93.2783 80.6613C92.4039 79.7157 91.9636 78.1758 92.1761 76.8079C92.5062 74.6841 94.1797 73.0395 96.312 72.7435C96.7729 72.6796 97.8143 72.7706 98.3023 72.9175ZM104.424 79.1664C108.954 82.646 111.867 87.4462 112.925 93.172C113.174 94.5236 113.267 97.8544 113.093 99.2454C112.651 102.784 111.473 106.068 109.659 108.82C108.801 110.122 108.723 110.479 109.198 110.951L109.544 111.296H112.092C114.902 111.296 115.326 111.369 116.069 111.979C116.294 112.164 116.611 112.581 116.773 112.905C117.053 113.463 117.068 113.584 117.068 115.284V117.074H90H62.9322V115.284C62.9322 113.584 62.9472 113.463 63.2267 112.905C63.3888 112.581 63.7058 112.164 63.9312 111.979C64.8163 111.252 63.5377 111.296 83.7366 111.296C101.719 111.296 102.12 111.291 102.474 111.076C102.963 110.779 104.839 108.898 105.501 108.041C109.341 103.07 110.369 96.5008 108.24 90.5374C107.768 89.2139 106.616 87.1202 105.678 85.8813C104.86 84.7993 103.159 83.0435 102.292 82.3855L101.904 82.0903L102.224 81.7115C102.644 81.2162 103.38 79.6934 103.478 79.1211C103.519 78.8733 103.604 78.6706 103.666 78.6706C103.728 78.6706 104.069 78.8937 104.424 79.1664ZM80.7345 91.1384C81.5004 91.5781 82.2181 92.0043 82.3296 92.0855C82.517 92.2219 82.4256 92.4181 81.1198 94.6827C80.343 96.03 79.6662 97.1331 79.6158 97.1341C79.4357 97.1378 76.3436 95.2929 76.3761 95.2011C76.4954 94.8633 79.1585 90.3464 79.2404 90.3431C79.2963 90.3408 79.9686 90.6987 80.7345 91.1384ZM67.0782 105.797C66.58 106.293 66.7512 107.077 67.4128 107.327C67.9005 107.512 83.2615 107.484 83.6311 107.298C84.2325 106.995 84.3358 106.213 83.8357 105.749C83.5919 105.522 83.4679 105.519 75.4728 105.519H67.3573L67.0782 105.797Z"/>
</mask>
<path fill-rule="evenodd" clip-rule="evenodd" d="M89.5616 61.1416C89.3795 61.2367 86.9468 65.3286 81.9687 73.9127C77.94 80.8599 74.613 86.6595 74.5753 86.8009C74.4055 87.4388 74.7331 87.7203 77.3925 89.2228C77.4769 89.2705 76.9182 90.3439 75.8002 92.2817C73.9366 95.5118 73.8158 95.843 74.3336 96.3055C74.5945 96.5384 78.8239 99.0022 79.5772 99.36C79.9572 99.5404 80.0225 99.5422 80.3614 99.3807C80.6702 99.2333 81.0175 98.709 82.4751 96.1889C84.1338 93.3216 84.2315 93.1799 84.4654 93.3016C84.6008 93.3722 85.1806 93.7033 85.7538 94.0376C87.0232 94.778 87.3387 94.8577 87.7434 94.5407C87.9087 94.4111 89.4052 91.9528 91.0966 89.0321C93.7097 84.5198 94.184 83.7645 94.3786 83.8059C94.5037 83.8327 94.9111 83.937 95.2839 84.038C96.6225 84.4006 98.5148 84.2207 99.8025 83.6084L100.336 83.3547L101.224 84.0531C106.306 88.0494 108.55 94.8942 106.828 101.146C106.06 103.933 104.628 106.37 102.543 108.436L101.599 109.371H83.427C63.5572 109.371 64.5568 109.338 63.3909 110.019C62.7161 110.413 61.8743 111.264 61.5679 111.862C61.0605 112.853 61.0013 113.269 61 115.847C60.9993 117.197 61.0306 118.384 61.0694 118.485C61.2776 119.025 59.8367 119 90 119C120.163 119 118.722 119.025 118.931 118.485C118.969 118.384 119.001 117.197 119 115.847C118.999 113.269 118.939 112.853 118.432 111.862C118.126 111.264 117.284 110.413 116.609 110.019C115.785 109.538 114.915 109.371 113.234 109.371C112.403 109.371 111.722 109.354 111.722 109.333C111.722 109.313 112.096 108.561 112.553 107.662C115.04 102.768 115.753 97.3493 114.625 91.8991C113.874 88.266 112.042 84.4416 109.672 81.5594C108.323 79.9189 105.43 77.3607 103.906 76.4613C103.663 76.3179 103.533 76.0871 103.34 75.4591C103.035 74.4687 102.356 73.3922 101.546 72.6166L100.942 72.0394L101.777 70.6254C102.236 69.8477 102.643 69.0749 102.682 68.9081C102.841 68.2215 102.744 68.1536 96.3417 64.4818C93.0011 62.5658 90.1691 60.9991 90.0486 61C89.928 61.0009 89.7088 61.0646 89.5616 61.1416ZM95.5159 66.2396C98.2056 67.787 100.397 69.0903 100.386 69.136C100.375 69.1816 100.108 69.6562 99.7918 70.1905L99.2177 71.1622L98.6178 70.9954C98.2828 70.9023 97.516 70.8263 96.8807 70.8231C95.9315 70.8185 95.5929 70.8685 94.8335 71.1261C92.4321 71.9406 90.7726 73.8174 90.278 76.2778C89.8589 78.3628 90.519 80.5697 92.0172 82.0934C92.4826 82.5667 92.5282 82.6569 92.4182 82.8864C92.35 83.0288 91.0928 85.21 89.6246 87.7334C87.8639 90.7594 86.896 92.3166 86.7815 92.3073C86.6861 92.2995 84.4061 91.0288 81.7147 89.4833C77.0187 86.7867 76.8267 86.6634 76.9565 86.4278C77.0308 86.2926 80.0809 81.0275 83.7345 74.7274C87.8664 67.6025 90.4242 63.3018 90.5014 63.3495C90.5697 63.3917 92.8262 64.6923 95.5159 66.2396ZM98.3023 72.9175C99.5842 73.3035 100.67 74.2325 101.279 75.4646C101.638 76.1916 101.657 76.2931 101.657 77.4788C101.657 78.6433 101.633 78.7777 101.3 79.4776C99.7747 82.6853 95.7047 83.2858 93.2783 80.6613C92.4039 79.7157 91.9636 78.1758 92.1761 76.8079C92.5062 74.6841 94.1797 73.0395 96.312 72.7435C96.7729 72.6796 97.8143 72.7706 98.3023 72.9175ZM104.424 79.1664C108.954 82.646 111.867 87.4462 112.925 93.172C113.174 94.5236 113.267 97.8544 113.093 99.2454C112.651 102.784 111.473 106.068 109.659 108.82C108.801 110.122 108.723 110.479 109.198 110.951L109.544 111.296H112.092C114.902 111.296 115.326 111.369 116.069 111.979C116.294 112.164 116.611 112.581 116.773 112.905C117.053 113.463 117.068 113.584 117.068 115.284V117.074H90H62.9322V115.284C62.9322 113.584 62.9472 113.463 63.2267 112.905C63.3888 112.581 63.7058 112.164 63.9312 111.979C64.8163 111.252 63.5377 111.296 83.7366 111.296C101.719 111.296 102.12 111.291 102.474 111.076C102.963 110.779 104.839 108.898 105.501 108.041C109.341 103.07 110.369 96.5008 108.24 90.5374C107.768 89.2139 106.616 87.1202 105.678 85.8813C104.86 84.7993 103.159 83.0435 102.292 82.3855L101.904 82.0903L102.224 81.7115C102.644 81.2162 103.38 79.6934 103.478 79.1211C103.519 78.8733 103.604 78.6706 103.666 78.6706C103.728 78.6706 104.069 78.8937 104.424 79.1664ZM80.7345 91.1384C81.5004 91.5781 82.2181 92.0043 82.3296 92.0855C82.517 92.2219 82.4256 92.4181 81.1198 94.6827C80.343 96.03 79.6662 97.1331 79.6158 97.1341C79.4357 97.1378 76.3436 95.2929 76.3761 95.2011C76.4954 94.8633 79.1585 90.3464 79.2404 90.3431C79.2963 90.3408 79.9686 90.6987 80.7345 91.1384ZM67.0782 105.797C66.58 106.293 66.7512 107.077 67.4128 107.327C67.9005 107.512 83.2615 107.484 83.6311 107.298C84.2325 106.995 84.3358 106.213 83.8357 105.749C83.5919 105.522 83.4679 105.519 75.4728 105.519H67.3573L67.0782 105.797Z" fill="#3243A0" stroke="white" stroke-width="0.4" mask="url(#path-2-inside-1_302_2776)"/>
</svg>
