<svg width="181" height="181" viewBox="0 0 181 181" fill="none" xmlns="http://www.w3.org/2000/svg">
<circle cx="90.5" cy="90.5" r="90.5" fill="white"/>
<circle cx="113.304" cy="92.7422" r="1.3971" fill="#3243A0"/>
<circle cx="102.871" cy="89.2643" r="1.3971" fill="#3243A0"/>
<circle cx="66.9323" cy="89.2643" r="1.3971" fill="#3243A0"/>
<circle cx="85.4811" cy="90.4235" r="1.3971" fill="#3243A0"/>
<path d="M58.5796 73.9556V114.531H123.5V73.376" stroke="#3243A0" stroke-width="1.5"/>
<path d="M58 74.5354L61.9756 74.2129C67.8492 73.7364 73.5841 72.1783 78.8912 69.617V69.617C82.3568 67.9445 86.353 67.7507 89.9643 69.08L94.8934 70.8945C98.6608 72.2813 102.771 72.4392 106.634 71.3454L108.882 70.7087C113.991 69.2621 119.484 70.4824 123.5 73.9558V73.9558" stroke="#3243A0" stroke-width="1.5"/>
<path d="M123.5 85.5487L111.374 80.5555C106.535 78.5631 101.089 78.6545 96.3194 80.8084L91.7369 82.8779C87.903 84.6093 83.6029 85.0194 79.5108 84.0439L74.4243 82.8313C69.1396 81.5715 63.5683 82.6342 59.1184 85.751L58.5796 86.1283" stroke="#3243A0" stroke-width="1.5"/>
<path d="M123.5 101.779L119.238 99.8287C115.256 98.0068 110.753 97.6719 106.545 98.8848V98.8848C103.261 99.8313 99.7533 99.6383 96.5931 98.337L92.7176 96.7412C87.9419 94.7747 82.5714 94.8371 77.8427 96.9141L71.0413 99.9013C68.934 100.827 66.676 101.362 64.3774 101.48L58.5796 101.779" stroke="#3243A0" stroke-width="1.5"/>
</svg>
