<svg width="181" height="181" viewBox="0 0 181 181" fill="none" xmlns="http://www.w3.org/2000/svg">
<circle cx="90.5" cy="90.5" r="90.5" fill="white"/>
<path d="M79.614 92.4628C67.2902 89.128 62.0698 105.431 61 114H120.051V68.8413C119.195 67.4518 115.943 65.5065 109.781 68.8413C102.079 73.0098 95.0187 96.6313 79.614 92.4628Z" stroke="#3243A0" stroke-width="1.5"/>
<path d="M68.231 114C69.1697 107.629 72.2221 96.4562 83.0368 98.9359C96.5552 102.036 104.28 83.5201 111.039 80.4204C116.447 77.9407 119.3 79.3872 120.051 80.4204" stroke="#3243A0" stroke-width="1.5"/>
<circle cx="98.3589" cy="105.564" r="1.20513" fill="#3243A0"/>
<circle cx="110.41" cy="109.179" r="1.20513" fill="#3243A0"/>
<circle cx="83.8975" cy="106.769" r="1.20513" fill="#3243A0"/>
<circle r="1.20513" transform="matrix(1 0 0 -1 109.205 94.7177)" fill="#3243A0"/>
</svg>
