<svg width="77" height="77" viewBox="0 0 77 77" fill="none" xmlns="http://www.w3.org/2000/svg">
<circle cx="38.5" cy="38.5" r="38.5" fill="#EEF0F7"/>
<path d="M38 42H34V34H38C39.0609 34 40.0783 34.4214 40.8284 35.1716C41.5786 35.9217 42 36.9391 42 38C42 39.0609 41.5786 40.0783 40.8284 40.8284C40.0783 41.5786 39.0609 42 38 42ZM36 36V40H38C38.5304 40 39.0391 39.7893 39.4142 39.4142C39.7893 39.0391 40 38.5304 40 38C40 37.4696 39.7893 36.9609 39.4142 36.5858C39.0391 36.2107 38.5304 36 38 36H36ZM41 30H31V46H45V34H41V30ZM29 28.992C29 28.444 29.447 28 29.999 28H42L47 33V46.993C47.0009 47.1243 46.976 47.2545 46.9266 47.3762C46.8772 47.4979 46.8043 47.6087 46.7121 47.7022C46.6199 47.7957 46.5101 47.8701 46.3892 47.9212C46.2682 47.9723 46.1383 47.9991 46.007 48H29.993C29.7304 47.9982 29.479 47.8931 29.2932 47.7075C29.1074 47.5219 29.0021 47.2706 29 47.008V28.992Z" fill="#101C5A"/>
</svg>
