<?xml version="1.0" encoding="UTF-8"?>
<!DOCTYPE svg PUBLIC "-//W3C//DTD SVG 1.1//EN" "http://www.w3.org/Graphics/SVG/1.1/DTD/svg11.dtd">
<!-- Creator: CorelDRAW 2021 (64-Bit) -->
<svg xmlns="http://www.w3.org/2000/svg" xml:space="preserve" width="69.6886mm" height="22.0212mm" version="1.1" style="shape-rendering:geometricPrecision; text-rendering:geometricPrecision; image-rendering:optimizeQuality; fill-rule:evenodd; clip-rule:evenodd"
viewBox="0 0 6968.86 2202.12"
 xmlns:xlink="http://www.w3.org/1999/xlink"
 xmlns:xodm="http://www.corel.com/coreldraw/odm/2003">
 <defs>
  <style type="text/css">
   <![CDATA[
    .fil0 {fill:#3443A0;fill-rule:nonzero}
    .fil2 {fill:#3443A0;fill-rule:nonzero}
    .fil1 {fill:#5B5B5B;fill-rule:nonzero}
   ]]>
  </style>
 </defs>
 <g id="Слой_x0020_1">
  <metadata id="CorelCorpID_0Corel-Layer"/>
  <g id="_2412099166672">
   <path class="fil0" d="M890.07 202.58c192.62,0 367.14,77.79 493.58,203.58 126.52,125.86 204.78,299.63 204.78,491.46 0,118.82 -30.58,233.59 -86.39,334.64 -55.78,100.98 -136.83,188.21 -237.81,252.03l-64.14 -101.86c83.29,-52.64 150.2,-124.69 196.31,-208.17 46.07,-83.4 71.31,-178.28 71.31,-276.64 0,-158.69 -64.56,-302.27 -168.95,-406.11 -104.47,-103.93 -248.95,-168.21 -408.69,-168.21 -159.73,0 -304.22,64.28 -408.69,168.21 -104.38,103.84 -168.95,247.42 -168.95,406.11 0,98.36 25.24,193.24 71.31,276.64 46.11,83.48 113.02,155.53 196.31,208.17l-64.13 101.86c-100.99,-63.82 -182.04,-151.05 -237.81,-252.03 -55.82,-101.05 -86.4,-215.82 -86.4,-334.64 0,-191.83 78.26,-365.6 204.79,-491.46 126.43,-125.79 300.95,-203.58 493.57,-203.58zm0 190.31l0.11 0c74.25,0 146.81,16.33 212.97,46.81 65.94,30.39 125.34,74.91 173.49,131.41l-79.94 89.83c-36.72,-43.09 -93.62,-88.61 -144,-111.83 -50.17,-23.12 -105.53,-35.5 -162.52,-35.5l-0.11 0 -0.1 0c-56.99,0 -112.36,12.38 -162.52,35.5 -50.39,23.22 -107.29,68.74 -144,111.83l-79.95 -89.83c48.16,-56.5 107.55,-101.02 173.49,-131.41 66.16,-30.48 138.72,-46.81 212.98,-46.81l0.1 0zm0 192.78c52.53,0.2 103.35,13.59 148.29,37.93 45.28,24.51 84.51,60.18 113.42,104.68l-86.63 94.13c-44.79,-68.94 -88.75,-115.59 -175.08,-116.01 -86.33,0.42 -130.29,47.07 -175.08,116.01l-86.62 -94.13c28.91,-44.5 68.13,-80.17 113.41,-104.68 44.94,-24.34 95.76,-37.73 148.29,-37.93zm0 193.16c65.95,0 119.42,53.18 119.42,118.79 0,65.61 -53.47,118.8 -119.42,118.8 -65.95,0 -119.41,-53.19 -119.41,-118.8 0,-65.61 53.46,-118.79 119.41,-118.79zm-337.6 942.4c-5.35,-2.17 -10.67,-4.39 -15.97,-6.66 -161.01,-68.99 -294.34,-181.7 -388.27,-320.75 -97.06,-143.7 -152.06,-315.49 -152.06,-496.2 0,-245.54 100.15,-467.94 262.06,-629.01 161.82,-160.99 385.22,-260.56 631.84,-260.56 246.62,0 470.02,99.57 631.84,260.56 161.92,161.07 262.06,383.47 262.06,629.01 0,180.71 -54.99,352.5 -152.06,496.2 -93.93,139.05 -227.26,251.76 -388.27,320.75 -5.29,2.27 -10.62,4.49 -15.97,6.66l72.62 -171.78 15.73 -10.05c86.91,-55.52 159.35,-129.27 215.92,-213.02 83.82,-124.09 131.31,-272.52 131.31,-428.76 0,-212.41 -86.45,-404.62 -226.22,-543.66 -139.86,-139.13 -333.23,-225.18 -546.96,-225.18 -213.73,0 -407.1,86.05 -546.96,225.18 -139.77,139.04 -226.21,331.25 -226.21,543.66 0,156.24 47.49,304.67 131.31,428.76 56.57,83.75 129,157.5 215.91,213.02l15.73 10.05 72.62 171.78z"/>
   <polygon class="fil1" points="890.07,1104.69 1169.26,1556.5 890.07,2210.18 610.89,1556.5 680.58,1443.72 876.71,2138.06 747.89,1334.78 "/>
   <path class="fil2" d="M2076.45 752.13l0 -383.88 88.84 0c29.79,0 52.28,8.13 67.36,24.4 15.08,16.18 22.57,39.76 22.57,70.66l0 49.81c0,30.89 -7.49,54.38 -22.57,70.56 -15.08,16.18 -37.48,24.22 -67.27,24.22l-28.61 0 0 144.23 -60.32 0zm60.32 -199.07l28.7 0c9.96,0 17.37,-2.74 22.21,-8.32 4.84,-5.48 7.22,-14.89 7.22,-28.06l0 -57.49c0,-13.16 -2.38,-22.48 -7.22,-27.97 -4.84,-5.39 -12.25,-8.13 -22.21,-8.13l-28.7 0 0 129.97zm165.79 199.07l0 -383.88 164.52 0 0 54.84 -104.2 0 0 106.94 82.26 0 0 54.84 -82.26 0 0 112.42 104.2 0 0 54.84 -164.52 0zm216.05 -92.04l0 -199.8c0,-30.89 7.68,-54.66 22.94,-71.38 15.36,-16.73 37.75,-25.05 67.27,-25.05 29.52,0 52.37,8.32 68.64,25.05 16.18,16.63 24.32,40.4 24.32,71.29l0 37.47 -60.33 0 0 -41.22c0,-25.13 -10.33,-37.75 -31.07,-37.75 -20.93,0 -31.45,12.62 -31.45,37.84l0 207.57c0,25.05 10.52,37.57 31.45,37.57 20.74,0 31.07,-12.52 31.07,-37.57l0 -55.11 60.33 0 0 51.09c0,30.89 -8.14,54.75 -24.32,71.38 -16.27,16.73 -39.12,25.05 -68.64,25.05 -29.52,0 -51.91,-8.32 -67.27,-25.05 -15.26,-16.72 -22.94,-40.49 -22.94,-71.38zm235.8 92.04l0 -383.88 189.19 0 0 383.88 -60.32 0 0 -329.04 -68.55 0 0 329.04 -60.32 0zm235.89 -383.88l60.32 0 32.45 130.79 18.55 89.67 14.17 -88.84 27.51 -131.62 60.32 0 -64.43 285.63c-2.93,14.71 -6.31,27.23 -9.96,37.56 -3.66,10.33 -8.41,19.83 -14.35,28.52 -5.95,8.68 -13.07,15.44 -21.48,20.29 -8.32,4.93 -18.56,8.41 -30.71,10.69 -12.16,2.2 -26.33,2.84 -42.51,1.74l0 -54.84c16.46,1.1 28.89,-0.55 37.3,-4.85 8.4,-4.2 13.71,-12.97 16.08,-26.14l0.46 -3.47 -83.72 -295.13zm261.01 383.88l0 -383.88 168.91 0 0 54.84 -108.58 0 0 98.16 35.1 0c29.98,0 52.64,8.05 68,24.22 15.35,16.18 23.03,39.67 23.03,70.57l0 41.31c0,30.89 -7.68,54.38 -23.03,70.56 -15.36,16.18 -38.02,24.22 -68.1,24.22l-95.33 0zm60.33 -54.84l35 0c10.24,0 17.92,-2.74 23.04,-8.32 5.21,-5.57 7.77,-14.8 7.77,-27.87l0 -48.81c0,-13.07 -2.56,-22.3 -7.77,-27.88 -5.12,-5.57 -12.8,-8.32 -23.04,-8.32l-35 0 0 121.2zm169.34 55.39l0 -54.84c7.32,0 13.07,-0.37 17.1,-1.1 4.02,-0.73 7.58,-2.47 10.69,-5.21 3.2,-2.74 5.39,-6.76 6.58,-11.88 1.28,-5.21 2.01,-12.25 2.38,-21.2l6.58 -290.2 172.74 0 0 383.88 -60.32 0 0 -329.04 -52.1 0 -6.58 232.16c-1.1,34.91 -8.41,59.95 -22.03,74.94 -13.71,14.99 -35.55,22.49 -65.71,22.49l-9.33 0zm282.42 -0.55l0 -383.88 53.74 0 0 243.03 21.94 -84.63 49.35 -158.4 72.39 0 0 383.88 -60.32 0 0 -270.18 -24.5 94.33 -50.82 175.85 -61.78 0zm253.44 0l0 -383.88 60.32 0 0 167.35 78.97 -167.35 60.23 0 -83.81 171.1 83.81 212.78 -61.78 0 -58.68 -152.82 -18.74 35.01 0 117.81 -60.32 0zm230.21 0l61.06 -383.88 92.86 0 61.06 383.88 -60.33 0 -10.51 -69.65 -73.39 0 -10.42 69.65 -60.33 0zm78.61 -121.74l57.67 0 -28.88 -191.85 -28.79 191.85zm179.68 121.74l0 -383.88 60.32 0 0 164.52 68.55 0 0 -164.52 60.32 0 0 383.88 -60.32 0 0 -164.52 -68.55 0 0 164.52 -60.32 0zm248.5 -92.04l0 -199.8c0,-30.89 7.68,-54.66 22.94,-71.38 15.36,-16.73 37.75,-25.05 67.27,-25.05 29.52,0 52.37,8.32 68.64,25.05 16.18,16.63 24.32,40.4 24.32,71.29l0 37.47 -60.33 0 0 -41.22c0,-25.13 -10.33,-37.75 -31.07,-37.75 -20.93,0 -31.45,12.62 -31.45,37.84l0 207.57c0,25.05 10.52,37.57 31.45,37.57 20.74,0 31.07,-12.52 31.07,-37.57l0 -55.11 60.33 0 0 51.09c0,30.89 -8.14,54.75 -24.32,71.38 -16.27,16.73 -39.12,25.05 -68.64,25.05 -29.52,0 -51.91,-8.32 -67.27,-25.05 -15.26,-16.72 -22.94,-40.49 -22.94,-71.38zm235.8 92.04l0 -383.88 60.32 0 0 167.35 78.97 -167.35 60.23 0 -83.81 171.1 83.81 212.78 -61.78 0 -58.68 -152.82 -18.74 35.01 0 117.81 -60.32 0zm246.12 0l0 -383.88 53.74 0 0 243.03 21.94 -84.63 49.35 -158.4 72.39 0 0 383.88 -60.32 0 0 -270.18 -24.5 94.33 -50.82 175.85 -61.78 0zm253.44 0l61.87 0 52.65 -175.4 24.4 -94.5 -1.82 269.9 54.29 0 0 -383.51 -66.36 0 -49.08 158.12 -22.12 84.54 0 -242.57 -53.83 0 0 383.42zm33.45 -468.88l37.29 0c0.73,9.41 3.11,15.9 7.13,19.47 3.93,3.47 10.14,5.21 18.55,5.21 8.69,0 15.27,-1.74 19.75,-5.21 4.47,-3.57 7.03,-10.06 7.76,-19.47l36.75 0c0,18.92 -5.49,33.72 -16.36,44.42 -10.88,10.6 -26.88,15.9 -47.9,15.9 -20.56,0 -36.01,-5.3 -46.52,-15.81 -10.42,-10.51 -15.9,-25.41 -16.45,-44.51zm305.9 468.88l0 -383.88 60.32 0 0 329.04 68.55 0 0 -329.04 60.32 0 0 330.14 26.33 0 0 105.29 -60.33 0 0 -51.55 -155.19 0zm268.7 0l0 -383.88 164.52 0 0 54.84 -104.2 0 0 106.94 82.26 0 0 54.84 -82.26 0 0 112.42 104.2 0 0 54.84 -164.52 0zm220.99 0l0 -383.88 60.32 0 0 164.52 68.55 0 0 -164.52 60.32 0 0 383.88 -60.32 0 0 -164.52 -68.55 0 0 164.52 -60.32 0zm235.89 -329.04l0 -54.84 186.45 0 0 54.84 -63.06 0 0 329.04 -60.33 0 0 -329.04 -63.06 0zm232.14 329.04l0 -383.88 88.84 0c29.79,0 52.28,8.13 67.36,24.4 15.08,16.18 22.57,39.76 22.57,70.66l0 49.81c0,30.89 -7.49,54.38 -22.57,70.56 -15.08,16.18 -37.48,24.22 -67.27,24.22l-28.61 0 0 144.23 -60.32 0zm60.32 -199.07l28.7 0c9.96,0 17.37,-2.74 22.21,-8.32 4.84,-5.48 7.22,-14.89 7.22,-28.06l0 -57.49c0,-13.16 -2.38,-22.48 -7.22,-27.97 -4.84,-5.39 -12.25,-8.13 -22.21,-8.13l-28.7 0 0 129.97zm-4770.43 684.02l0 -378.88 53.04 0 0 239.87 21.65 -83.54 48.72 -156.33 71.44 0 0 378.88 -59.53 0 0 -266.66 -24.18 93.1 -50.16 173.56 -60.98 0zm250.14 0l0 -378.88 59.54 0 0 162.38 67.66 0 0 -162.38 59.54 0 0 378.88 -59.54 0 0 -162.38 -67.66 0 0 162.38 -59.54 0zm232.82 0l73.88 -223.54 -73.88 -155.34 58.01 0 70.81 153.26 0 -153.26 59.54 0 0 153.26 70.81 -153.26 58.01 0 -73.07 154.26 73.07 224.62 -59.54 0 -54.22 -167.88 -15.06 28.87 0 139.01 -59.54 0 0 -139.37 -14.97 -29.5 -54.31 168.87 -59.54 0zm363.08 0l0 -378.88 162.38 0 0 54.12 -102.84 0 0 105.55 81.19 0 0 54.13 -81.19 0 0 110.95 102.84 0 0 54.13 -162.38 0zm218.11 0l0 -378.88 59.54 0 0 162.38 67.66 0 0 -162.38 59.54 0 0 378.88 -59.54 0 0 -162.38 -67.66 0 0 162.38 -59.54 0zm250.14 0l0 -378.88 162.38 0 0 54.12 -102.84 0 0 105.55 81.19 0 0 54.13 -81.19 0 0 110.95 102.84 0 0 54.13 -162.38 0zm218.11 0l0 -378.88 87.68 0c29.41,0 51.6,8.03 66.49,24.08 14.88,15.97 22.28,39.25 22.28,69.74l0 49.16c0,30.49 -7.4,53.68 -22.28,69.64 -14.89,15.97 -36.99,23.91 -66.4,23.91l-28.23 0 0 142.35 -59.54 0zm59.54 -196.48l28.32 0c9.84,0 17.14,-2.7 21.93,-8.21 4.78,-5.41 7.12,-14.7 7.12,-27.69l0 -56.74c0,-12.99 -2.34,-22.19 -7.12,-27.61 -4.79,-5.32 -12.09,-8.03 -21.93,-8.03l-28.32 0 0 128.28zm163.63 196.48l0 -378.88 59.54 0 0 162.38 67.66 0 0 -162.38 59.54 0 0 378.88 -59.54 0 0 -162.38 -67.66 0 0 162.38 -59.54 0zm250.14 0l0 -378.88 59.54 0 0 142.35 28.23 0c29.41,0 51.51,7.94 66.4,23.91 14.88,15.96 22.28,39.15 22.28,69.64l0 49.43c0,30.49 -7.4,53.68 -22.28,69.64 -14.89,15.97 -37.08,23.91 -66.49,23.91l-87.68 0zm59.54 -54.13l28.32 0c9.84,0 17.14,-2.7 21.93,-8.02 4.78,-5.42 7.12,-14.62 7.12,-27.7l0 -56.83c0,-13.08 -2.34,-22.28 -7.12,-27.7 -4.79,-5.32 -12.09,-8.02 -21.93,-8.02l-28.32 0 0 128.27zm151.01 54.13l0 -378.88 59.54 0 0 378.88 -59.54 0zm108.24 0l66.66 -195.39 -62.33 -183.49 59.54 0 45.1 140.36 46.37 -140.36 52.32 0 -62.33 185.56 66.3 193.32 -59.54 0 -46 -141.81 -46.55 141.81 -59.54 0zm349.01 0l0 -378.88 53.04 0 0 239.87 21.65 -83.54 48.72 -156.33 71.44 0 0 378.88 -59.53 0 0 -266.66 -24.18 93.1 -50.16 173.56 -60.98 0zm246.89 -90.48l0 -41.59 59.54 0 0 45.11c0,24.81 10.2,37.16 30.49,37.16 10.11,0 17.77,-3.15 22.92,-9.47 5.14,-6.4 7.75,-17.5 7.75,-33.29l0 -29.85c0,-17.24 -2.97,-29.59 -9.02,-36.99 -6.04,-7.4 -15.78,-11.1 -29.41,-11.1l-14.61 0 0 -54.12 17.77 0c11.64,0 20.48,-3.07 26.43,-9.11 5.87,-6.14 8.84,-16.33 8.84,-30.86l0 -21.11c0,-16.23 -2.61,-27.51 -7.75,-33.82 -5.15,-6.41 -12.81,-9.57 -22.92,-9.57 -20.66,0 -31.03,12.45 -31.03,37.26l0 30.94 -57.91 0 0 -28.23c0,-30.49 7.84,-53.77 23.45,-69.92 15.7,-16.14 38.07,-24.17 67.03,-24.17 28.95,0 50.96,8.21 66.03,24.72 15.06,16.41 22.64,39.96 22.64,70.45l0 9.74c0,40.51 -13.8,66.49 -41.49,77.94 27.69,12 41.49,38.52 41.49,79.66l0 29.86c0,30.49 -7.58,53.94 -22.64,70.45 -15.07,16.51 -37.08,24.72 -66.03,24.72 -28.96,0 -51.51,-8.21 -67.57,-24.63 -15.97,-16.42 -24,-39.78 -24,-70.18zm236.7 90.48l0 -378.88 59.54 0 0 142.35 28.23 0c29.41,0 51.51,7.94 66.4,23.91 14.88,15.96 22.28,39.15 22.28,69.64l0 49.43c0,30.49 -7.4,53.68 -22.28,69.64 -14.89,15.97 -37.08,23.91 -66.49,23.91l-87.68 0zm59.54 -54.13l28.32 0c9.84,0 17.14,-2.7 21.93,-8.02 4.78,-5.42 7.12,-14.62 7.12,-27.7l0 -56.83c0,-13.08 -2.34,-22.28 -7.12,-27.7 -4.79,-5.32 -12.09,-8.02 -21.93,-8.02l-28.32 0 0 128.27zm151.01 54.13l0 -378.88 59.54 0 0 378.88 -59.54 0zm116.9 -90.84l0 -197.2c0,-30.49 7.58,-53.95 22.64,-70.45 15.16,-16.51 37.26,-24.72 66.4,-24.72 29.13,0 51.69,8.21 67.74,24.72 15.97,16.41 24,39.87 24,70.36l0 36.99 -59.54 0 0 -40.69c0,-24.81 -10.19,-37.26 -30.67,-37.26 -20.66,0 -31.03,12.45 -31.03,37.35l0 204.87c0,24.72 10.37,37.07 31.03,37.07 20.48,0 30.67,-12.35 30.67,-37.07l0 -54.4 59.54 0 0 50.43c0,30.49 -8.03,54.03 -24,70.45 -16.05,16.51 -38.61,24.72 -67.74,24.72 -29.14,0 -51.24,-8.21 -66.4,-24.72 -15.06,-16.51 -22.64,-39.96 -22.64,-70.45zm232.73 90.84l0 -378.88 59.54 0 0 165.17 77.94 -165.17 59.45 0 -82.72 168.87 82.72 210.01 -60.98 0 -57.92 -150.83 -18.49 34.55 0 116.28 -59.54 0zm227.22 0l60.26 -378.88 91.66 0 60.26 378.88 -59.54 0 -10.37 -68.74 -72.44 0 -10.29 68.74 -59.54 0zm77.58 -120.16l56.93 0 -28.51 -189.35 -28.42 189.35zm177.34 120.16l0 -378.88 59.54 0 0 162.38 67.66 0 0 -162.38 59.54 0 0 378.88 -59.54 0 0 -162.38 -67.66 0 0 162.38 -59.54 0zm250.14 0l0 -378.88 53.04 0 0 239.87 21.65 -83.54 48.72 -156.33 71.44 0 0 378.88 -59.53 0 0 -266.66 -24.18 93.1 -50.16 173.56 -60.98 0zm250.14 0l61.07 0 51.96 -173.11 24.09 -93.28 -1.8 266.39 53.58 0 0 -378.52 -65.49 0 -48.45 156.06 -21.83 83.45 0 -239.42 -53.13 0 0 378.43zm33.02 -462.78l36.8 0c0.72,9.29 3.07,15.7 7.04,19.22 3.88,3.43 10.01,5.14 18.31,5.14 8.57,0 15.07,-1.71 19.49,-5.14 4.42,-3.52 6.94,-9.93 7.67,-19.22l36.26 0c0,18.68 -5.41,33.29 -16.15,43.84 -10.73,10.47 -26.52,15.7 -47.27,15.7 -20.3,0 -35.54,-5.23 -45.91,-15.61 -10.29,-10.37 -15.7,-25.07 -16.24,-43.93zm-4737.39 868.01l0 -297.23 41.62 0 0 188.17 16.98 -65.53 38.22 -122.64 56.05 0 0 297.23 -46.71 0 0 -209.2 -18.97 73.04 -39.34 136.16 -47.85 0zm249.25 0.42l0 -42.46c5.66,0 10.12,-0.28 13.23,-0.85 3.11,-0.56 5.87,-1.91 8.28,-4.03 2.48,-2.12 4.18,-5.24 5.1,-9.2 0.99,-4.03 1.55,-9.48 1.84,-16.42l5.09 -224.69 133.76 0 0 297.23 -46.71 0 0 -254.77 -40.34 0 -5.1 179.75c-0.85,27.04 -6.51,46.43 -17.05,58.04 -10.62,11.6 -27.53,17.4 -50.89,17.4l-7.21 0zm206.35 -0.42l47.28 -297.23 71.9 0 47.27 297.23 -46.71 0 -8.13 -53.93 -56.83 0 -8.07 53.93 -46.71 0zm60.86 -94.27l44.66 0 -22.36 -148.54 -22.3 148.54zm139.55 94.27l0 -297.23 130.78 0 0 42.46 -84.07 0 0 76 27.17 0c23.22,0 40.77,6.23 52.66,18.76 11.89,12.53 17.83,30.71 17.83,54.63l0 31.99c0,23.92 -5.94,42.11 -17.83,54.64 -11.89,12.52 -29.44,18.75 -52.73,18.75l-73.81 0zm46.71 -42.46l27.1 0c7.93,0 13.87,-2.13 17.84,-6.44 4.03,-4.32 6.01,-11.47 6.01,-21.59l0 -37.79c0,-10.12 -1.98,-17.27 -6.01,-21.58 -3.97,-4.32 -9.91,-6.44 -17.84,-6.44l-27.1 0 0 93.84zm140.03 -28.81l0 -154.7c0,-23.78 6.16,-42.18 18.4,-55.2 12.25,-12.95 29.8,-19.46 52.59,-19.46 22.85,0 40.33,6.51 52.58,19.46 12.17,13.02 18.26,31.42 18.26,55.2l0 154.7c0,23.78 -6.09,42.18 -18.26,55.21 -12.25,12.95 -29.73,19.46 -52.58,19.46 -22.79,0 -40.34,-6.51 -52.59,-19.46 -12.24,-13.03 -18.4,-31.43 -18.4,-55.21zm46.71 2.76c0,19.61 8.14,29.44 24.35,29.44 16.06,0 24.06,-9.83 24.06,-29.44l0 -160.43c0,-19.46 -8,-29.23 -24.06,-29.23 -16.21,0 -24.35,9.77 -24.35,29.23l0 160.43zm140.25 68.51l0 -297.23 68.79 0c23.07,0 40.48,6.29 52.16,18.89 11.68,12.53 17.48,30.79 17.48,54.71l0 38.57c0,23.92 -5.8,42.1 -17.48,54.63 -11.68,12.53 -29.01,18.75 -52.09,18.75l-22.15 0 0 111.68 -46.71 0zm46.71 -154.14l22.22 0c7.72,0 13.45,-2.12 17.2,-6.44 3.75,-4.24 5.59,-11.53 5.59,-21.72l0 -44.52c0,-10.19 -1.84,-17.41 -5.59,-21.65 -3.75,-4.18 -9.48,-6.3 -17.2,-6.3l-22.22 0 0 100.63zm116.05 154.14l47.28 -297.23 71.9 0 47.27 297.23 -46.71 0 -8.13 -53.93 -56.83 0 -8.07 53.93 -46.71 0zm60.86 -94.27l44.66 0 -22.36 -148.54 -22.3 148.54zm125.54 -160.5l0 -42.46 144.37 0 0 42.46 -48.83 0 0 254.77 -46.71 0 0 -254.77 -48.83 0zm175.91 183.5l0 -154.7c0,-23.78 6.16,-42.18 18.4,-55.2 12.25,-12.95 29.8,-19.46 52.59,-19.46 22.85,0 40.33,6.51 52.58,19.46 12.17,13.02 18.26,31.42 18.26,55.2l0 154.7c0,23.78 -6.09,42.18 -18.26,55.21 -12.25,12.95 -29.73,19.46 -52.58,19.46 -22.79,0 -40.34,-6.51 -52.59,-19.46 -12.24,-13.03 -18.4,-31.43 -18.4,-55.21zm46.71 2.76c0,19.61 8.14,29.44 24.35,29.44 16.06,0 24.06,-9.83 24.06,-29.44l0 -160.43c0,-19.46 -8,-29.23 -24.06,-29.23 -16.21,0 -24.35,9.77 -24.35,29.23l0 160.43zm140.25 68.51l0 -297.23 68.79 0c23.07,0 40.48,6.29 52.16,18.89 11.68,12.53 17.48,30.79 17.48,54.71l0 38.57c0,23.92 -5.8,42.1 -17.48,54.63 -11.68,12.53 -29.01,18.75 -52.09,18.75l-22.15 0 0 111.68 -46.71 0zm46.71 -154.14l22.22 0c7.72,0 13.45,-2.12 17.2,-6.44 3.75,-4.24 5.59,-11.53 5.59,-21.72l0 -44.52c0,-10.19 -1.84,-17.41 -5.59,-21.65 -3.75,-4.18 -9.48,-6.3 -17.2,-6.3l-22.22 0 0 100.63zm128.36 154.14l0 -297.23 46.71 0 0 127.38 53.08 0 0 -127.38 46.71 0 0 297.23 -46.71 0 0 -127.39 -53.08 0 0 127.39 -46.71 0zm196.23 0l0 -297.23 46.71 0 0 111.67 22.15 0c23.08,0 40.41,6.23 52.09,18.76 11.68,12.52 17.48,30.71 17.48,54.63l0 38.78c0,23.92 -5.8,42.11 -17.48,54.64 -11.68,12.52 -29.09,18.75 -52.16,18.75l-68.79 0zm46.71 -42.46l22.22 0c7.72,0 13.45,-2.13 17.2,-6.3 3.75,-4.25 5.59,-11.47 5.59,-21.73l0 -44.58c0,-10.26 -1.84,-17.48 -5.59,-21.73 -3.75,-4.17 -9.48,-6.3 -17.2,-6.3l-22.22 0 0 100.64zm118.47 42.46l0 -297.23 46.71 0 0 297.23 -46.71 0zm84.91 0l52.3 -153.29 -48.9 -143.94 46.7 0 35.39 110.11 36.38 -110.11 41.04 0 -48.9 145.57 52.02 151.66 -46.71 0 -36.1 -111.25 -36.51 111.25 -46.71 0zm273.8 0l0 -297.23 41.62 0 0 188.17 16.98 -65.53 38.22 -122.64 56.05 0 0 297.23 -46.71 0 0 -209.2 -18.97 73.04 -39.34 136.16 -47.85 0zm192.41 -71.27l0 -154.7c0,-23.92 5.95,-42.32 17.77,-55.27 11.89,-12.95 29.22,-19.39 52.08,-19.39 22.86,0 40.55,6.44 53.15,19.39 12.53,12.88 18.83,31.28 18.83,55.2l0 29.02 -46.71 0 0 -31.92c0,-19.46 -8,-29.23 -24.06,-29.23 -16.21,0 -24.35,9.77 -24.35,29.3l0 160.72c0,19.39 8.14,29.08 24.35,29.08 16.06,0 24.06,-9.69 24.06,-29.08l0 -42.68 46.71 0 0 39.56c0,23.92 -6.3,42.4 -18.83,55.28 -12.6,12.95 -30.29,19.39 -53.15,19.39 -22.86,0 -40.19,-6.44 -52.08,-19.39 -11.82,-12.95 -17.77,-31.36 -17.77,-55.28zm178.75 0l0 -154.7c0,-23.92 5.95,-42.32 17.77,-55.27 11.89,-12.95 29.22,-19.39 52.08,-19.39 22.86,0 40.55,6.44 53.15,19.39 12.53,12.88 18.83,31.28 18.83,55.2l0 29.02 -46.71 0 0 -31.92c0,-19.46 -8,-29.23 -24.06,-29.23 -16.21,0 -24.35,9.77 -24.35,29.3l0 160.72c0,19.39 8.14,29.08 24.35,29.08 16.06,0 24.06,-9.69 24.06,-29.08l0 -42.68 46.71 0 0 39.56c0,23.92 -6.3,42.4 -18.83,55.28 -12.6,12.95 -30.29,19.39 -53.15,19.39 -22.86,0 -40.19,-6.44 -52.08,-19.39 -11.82,-12.95 -17.77,-31.36 -17.77,-55.28zm169.84 71.69l0 -42.46c5.66,0 10.12,-0.28 13.23,-0.85 3.11,-0.56 5.87,-1.91 8.28,-4.03 2.48,-2.12 4.18,-5.24 5.1,-9.2 0.99,-4.03 1.55,-9.48 1.84,-16.42l5.09 -224.69 133.76 0 0 297.23 -46.71 0 0 -254.77 -40.34 0 -5.1 179.75c-0.85,27.04 -6.51,46.43 -17.05,58.04 -10.62,11.6 -27.53,17.4 -50.89,17.4l-7.21 0zm218.66 -0.42l0 -297.23 127.39 0 0 42.46 -80.68 0 0 82.8 63.7 0 0 42.46 -63.7 0 0 87.05 80.68 0 0 42.46 -127.39 0zm160.07 39.07l0 -81.53 18.83 0c3.96,-4.81 6.86,-10.19 8.56,-16 1.7,-5.87 2.76,-13.37 3.19,-22.43l8.49 -216.34 132.48 0 0 254.77 20.38 0 0 81.53 -46.71 0 0 -39.07 -98.51 0 0 39.07 -46.71 0zm63.98 -81.53l60.86 0 0 -212.31 -39.06 0 -8.49 173.1c-0.57,10.83 -1.92,19.11 -4.04,24.84 -2.12,5.73 -5.16,10.48 -9.27,14.37zm165.37 -28.81l0 -154.7c0,-23.78 6.16,-42.18 18.4,-55.2 12.25,-12.95 29.8,-19.46 52.59,-19.46 22.85,0 40.33,6.51 52.58,19.46 12.17,13.02 18.26,31.42 18.26,55.2l0 154.7c0,23.78 -6.09,42.18 -18.26,55.21 -12.25,12.95 -29.73,19.46 -52.58,19.46 -22.79,0 -40.34,-6.51 -52.59,-19.46 -12.24,-13.03 -18.4,-31.43 -18.4,-55.21zm46.71 2.76c0,19.61 8.14,29.44 24.35,29.44 16.06,0 24.06,-9.83 24.06,-29.44l0 -160.43c0,-19.46 -8,-29.23 -24.06,-29.23 -16.21,0 -24.35,9.77 -24.35,29.23l0 160.43zm140.25 68.51l0 -297.23 70.49 0c23.92,0 41.4,5.59 52.51,16.77 11.11,11.18 16.7,28.38 16.7,51.59l0 10.62c0,30.36 -10.04,50.31 -30.21,59.87 23.28,8.98 34.89,30.14 34.89,63.62l0 24.27c0,22.93 -6.02,40.41 -18.05,52.44 -12.03,12.03 -29.65,18.05 -52.87,18.05l-73.46 0zm46.71 -42.46l26.75 0c8.14,0 14.23,-2.2 18.19,-6.65 4.04,-4.39 6.02,-11.96 6.02,-22.58l0 -25.97c0,-13.52 -2.34,-22.93 -6.94,-28.24 -4.6,-5.24 -12.31,-7.86 -23.07,-7.86l-20.95 0 0 91.3zm0 -133.76l18.26 0c9.27,0 16.28,-2.4 20.95,-7.15 4.74,-4.74 7.08,-12.8 7.08,-24.13l0 -16.63c0,-10.61 -1.84,-18.4 -5.59,-23.28 -3.76,-4.89 -9.77,-7.36 -18.05,-7.36l-22.65 0 0 78.55zm128.29 176.22l47.28 -297.23 71.9 0 47.27 297.23 -46.71 0 -8.13 -53.93 -56.83 0 -8.07 53.93 -46.71 0zm60.86 -94.27l44.66 0 -22.36 -148.54 -22.3 148.54zm139.12 94.27l0 -297.23 46.71 0 0 127.38 53.08 0 0 -127.38 46.71 0 0 297.23 -46.71 0 0 -127.39 -53.08 0 0 127.39 -46.71 0zm196.23 0l0 -297.23 41.62 0 0 188.17 16.98 -65.53 38.22 -122.64 56.05 0 0 297.23 -46.71 0 0 -209.2 -18.97 73.04 -39.34 136.16 -47.85 0zm196.23 0l47.92 0 40.76 -135.81 18.9 -73.17 -1.42 208.98 42.04 0 0 -296.95 -51.38 0 -38.01 122.43 -17.12 65.46 0 -187.82 -41.69 0 0 296.88zm25.91 -363.05l28.87 0c0.57,7.29 2.41,12.31 5.52,15.07 3.04,2.69 7.86,4.04 14.37,4.04 6.72,0 11.82,-1.35 15.28,-4.04 3.47,-2.76 5.45,-7.78 6.02,-15.07l28.45 0c0,14.65 -4.25,26.11 -12.67,34.39 -8.42,8.21 -20.81,12.32 -37.08,12.32 -15.93,0 -27.89,-4.11 -36.02,-12.25 -8.07,-8.13 -12.32,-19.67 -12.74,-34.46z"/>
  </g>
 </g>
</svg>
